<?xml version="1.0" encoding="UTF-8"?>
<svg width="300px" height="474px" viewBox="0 0 300 474" version="1.1" xmlns="http://www.w3.org/2000/svg" xmlns:xlink="http://www.w3.org/1999/xlink">
    <!-- Generator: Sketch 52.5 (67469) - http://www.bohemiancoding.com/sketch -->
    <title>Group 89</title>
    <desc>Created with Sketch.</desc>
    <defs>
        <polygon id="path-1" points="0 0.0573472178 299.657035 0.0573472178 299.657035 47.4753577 0 47.4753577"></polygon>
        <polygon id="path-3" points="0 473.246423 299.657789 473.246423 299.657789 0.620193959 0 0.620193959"></polygon>
    </defs>
    <g id="Page-1" stroke="none" stroke-width="1" fill="none" fill-rule="evenodd">
        <g id="osakakuma-website-copy" transform="translate(-196.000000, -1141.000000)">
            <g id="Group-89" transform="translate(196.000000, 1141.000000)">
                <polygon id="Fill-1" fill="#5C3418" points="85.0994472 453.253495 90.3366332 453.253495 87.7180402 445.4811"></polygon>
                <polygon id="Fill-2" fill="#5C3418" points="145.592714 453.253495 150.829899 453.253495 148.211307 445.4811"></polygon>
                <g id="Group-88" transform="translate(0.000000, 0.133383)">
                    <g id="Group-5" transform="translate(0.000000, 425.771065)">
                        <mask id="mask-2" fill="white">
                            <use xlink:href="#path-1"></use>
                        </mask>
                        <g id="Clip-4"></g>
                        <path d="M278.069095,37.0738083 L276.689698,32.9788703 L267.658794,32.9788703 L266.278643,37.0738083 L257.327638,37.0738083 L267.798995,10.458972 L276.548744,10.458972 L287.020854,37.0738083 L278.069095,37.0738083 Z M254.36005,37.0738083 L246.168844,37.0738083 L246.168844,21.6232169 L242.073618,37.0738083 L234.394221,37.0738083 L230.298241,21.6232169 L230.298241,37.0738083 L222.106281,37.0738083 L222.106281,10.458972 L233.881658,10.458972 L238.233166,25.9268957 L242.584673,10.458972 L254.36005,10.458972 L254.36005,37.0738083 Z M219.243467,24.7897479 C219.243467,31.5742025 213.742462,37.0738083 206.956281,37.0738083 C200.170854,37.0738083 194.669849,31.5742025 194.669849,24.7897479 L194.669849,10.458972 L203.216834,10.458972 L203.216834,26.2011978 C203.216834,28.265999 204.890955,29.9396938 206.956281,29.9396938 C209.021608,29.9396938 210.696482,28.265999 210.696482,26.2011978 L210.696482,10.458972 L219.243467,10.458972 L219.243467,24.7897479 Z M182.521357,37.0738083 L177.592462,25.8093377 L173.818342,29.7618496 L173.818342,37.0738083 L165.627136,37.0738083 L165.627136,10.458972 L173.818342,10.458972 L173.818342,19.5071723 L181.497739,10.458972 L192.248744,10.458972 L182.998492,20.1477129 L192.760553,37.0738083 L182.521357,37.0738083 Z M154.106533,37.0738083 L152.727136,32.9788703 L143.695477,32.9788703 L142.31608,37.0738083 L133.364322,37.0738083 L143.836432,10.458972 L152.586181,10.458972 L163.058291,37.0738083 L154.106533,37.0738083 Z M121.333417,37.0738083 L116.404523,25.8093377 L112.630402,29.7618496 L112.630402,37.0738083 L104.439196,37.0738083 L104.439196,10.458972 L112.630402,10.458972 L112.630402,19.5071723 L120.309799,10.458972 L131.060804,10.458972 L121.810553,20.1477129 L131.572613,37.0738083 L121.333417,37.0738083 Z M93.6135678,37.0738083 L92.2341709,32.9788703 L83.2025126,32.9788703 L81.8231156,37.0738083 L72.8713568,37.0738083 L83.3434673,10.458972 L92.0932161,10.458972 L102.565327,37.0738083 L93.6135678,37.0738083 Z M68.4180905,33.0308671 C66.2517588,35.6322153 62.3592965,37.0738083 55.2731156,37.0738083 C49.1781407,37.0738083 45.7266332,35.7030515 43.8180905,33.6284537 C43.8150754,33.6254394 43.8128141,33.6231787 43.8105528,33.6201644 C43.4133166,33.1989148 43.0869347,32.7158719 42.8223618,32.2004251 L42.5057789,31.5832455 L50.9472362,29.023344 C51.0746231,29.4159577 51.361809,29.9600404 52.0424623,30.4287653 C52.9236181,31.0617701 54.208794,31.5191914 56.6321608,31.5191914 C57.5864322,31.5191914 58.7615578,31.4136906 59.6427136,30.9916874 C60.4138191,30.6043488 61.1110553,29.9012614 61.1110553,29.0225905 C61.1110553,28.4604219 60.8547739,27.7219164 59.6427136,27.2298305 C59.018593,26.9834108 57.4763819,26.7023266 55.6771357,26.3858242 C53.6577889,25.9984855 51.6015075,25.6827367 49.5821608,25.1552328 C47.3788945,24.5576461 45.3595477,23.8191405 44.038191,21.8854617 C43.0831658,20.4792868 43.0100503,19.0723583 43.0100503,18.4401072 C43.0100503,17.1040149 43.4140704,15.87267 44.1482412,14.7829975 C45.8366834,12.1816493 49.4351759,10.458972 56.0811558,10.458972 C58.3575377,10.458972 61.9922111,10.7400563 64.1585427,11.4438973 C65.0766332,11.7249816 65.9208543,12.1469847 66.6919598,12.7091533 L66.7130653,12.7234712 C67.7027638,13.4182693 68.4173367,14.4386127 68.7286432,15.6066572 L68.9600503,16.4710102 L60.5472362,18.0068003 C60.4703518,17.7897701 60.4175879,17.5757542 60.3030151,17.3850992 C59.7158291,16.4363456 58.3937186,15.87267 56.0442211,15.87267 C55.8972362,15.87267 53.6577889,15.8380054 52.5557789,16.7174299 C52.0424623,17.1040149 51.968593,17.6661835 51.968593,17.9126032 C51.968593,18.1936874 52.0424623,18.6503552 52.5557789,19.0376938 C53.8409548,20.0218655 58.4306533,20.6202057 63.0572864,21.6397955 C66.0309045,22.3074649 67.4261307,23.0459704 68.4180905,24.0655603 C69.078392,24.6978114 70.1434673,25.9984855 70.1434673,28.319503 C70.1434673,30.0075157 69.5193467,31.7294394 68.4180905,33.0308671 Z M39.7703518,24.2547081 C39.7703518,31.3051755 33.6648241,37.0738083 26.2032663,37.0738083 C18.7417085,37.0738083 12.6361809,31.3051755 12.6361809,24.2547081 L12.6361809,23.2780722 C12.6361809,16.2276048 18.7417085,10.458972 26.2032663,10.458972 C33.6648241,10.458972 39.7703518,16.2276048 39.7703518,23.2780722 L39.7703518,24.2547081 Z M0,47.4754331 L299.657035,47.4754331 L299.657035,0.0573472178 L0,0.0573472178 L0,47.4754331 Z" id="Fill-3" fill="#5C3418" mask="url(#mask-2)"></path>
                    </g>
                    <path d="M26.203191,442.700853 C23.503191,442.700853 21.2931407,444.788262 21.2931407,447.339874 L21.2931407,451.735489 C21.2931407,454.286348 23.503191,456.37451 26.203191,456.37451 C28.9039447,456.37451 31.1132412,454.286348 31.1132412,451.735489 L31.1132412,447.339874 C31.1132412,444.788262 28.9039447,442.700853 26.203191,442.700853" id="Fill-6" fill="#5C3418"></path>
                    <polygon id="Fill-8" fill="#5C3418" points="269.555276 453.120112 274.793216 453.120112 272.173869 445.347717"></polygon>
                    <path d="M136.874698,277.92097 C136.874698,277.92097 133.636508,285.931495 132.407111,292.352725 C130.860377,300.427304 113.388015,311.807072 85.3410302,305.865116 C74.9465578,303.663164 69.9799749,291.568252 76.1171608,282.89684 C79.9357538,277.500474 87.3822362,271.736363 101.130226,266.581895" id="Fill-10" fill="#5C3418"></path>
                    <path d="M162.78294,277.92097 C162.78294,277.92097 166.021131,285.931495 167.251281,292.352725 C168.797261,300.427304 186.269623,311.807072 214.316608,305.865116 C224.71108,303.663164 229.677663,291.568252 223.540477,282.89684 C219.722638,277.500474 212.275402,271.736363 198.527412,266.581895" id="Fill-12" fill="#5C3418"></path>
                    <path d="M137.725251,45.3006095 C140.481784,71.9161994 126.925251,95.1263742 107.444849,97.1429466 C87.9644472,99.1602725 69.9380653,79.2191151 67.1815327,52.6035253 C64.4242462,25.988689 77.9815327,2.77776057 97.4611809,0.761188235 C116.941583,-1.25613768 134.967965,18.6850197 137.725251,45.3006095" id="Fill-14" fill="#EEDA00"></path>
                    <path d="M75.0443216,86.0854083 C94.3845226,102.651294 100.326482,127.442473 88.3151759,141.4575 C76.3046231,155.472528 50.8890452,153.404712 31.5488442,136.838826 C12.2086432,120.272941 6.26668342,95.4817612 18.2772362,81.4667342 C30.2885427,67.4517072 55.7041206,69.5195227 75.0443216,86.0854083" id="Fill-16" fill="#EEDA00"></path>
                    <path d="M128.439347,208.804536 C131.064724,234.149595 113.158945,256.769719 88.4466332,259.328113 C63.7335678,261.885754 41.5720101,243.414072 38.9466332,218.069013 C36.3212563,192.723954 54.2270352,170.104583 78.9401005,167.546189 C103.652412,164.987041 125.814724,183.459477 128.439347,208.804536" id="Fill-18" fill="#EEDA00"></path>
                    <path d="M161.932387,45.3006095 C159.175854,71.9161994 172.733141,95.1263742 192.212789,97.1429466 C211.693191,99.1602725 229.719573,79.2191151 232.476106,52.6035253 C235.233392,25.988689 221.676106,2.77776057 202.196457,0.761188235 C182.716055,-1.25613768 164.689673,18.6850197 161.932387,45.3006095" id="Fill-20" fill="#EEDA00"></path>
                    <path d="M224.613693,86.0854083 C205.273492,102.651294 199.331533,127.442473 211.342839,141.4575 C223.353392,155.472528 248.768216,153.404712 268.109171,136.838826 C287.449372,120.272941 293.390578,95.4817612 281.380025,81.4667342 C269.368719,67.4517072 243.953894,69.5195227 224.613693,86.0854083" id="Fill-22" fill="#EEDA00"></path>
                    <path d="M171.218291,208.804536 C168.593668,234.149595 186.49794,256.769719 211.211759,259.328113 C235.92407,261.885754 258.085628,243.414072 260.711005,218.069013 C263.336382,192.723954 245.430603,170.104583 220.717538,167.546189 C196.005226,164.987041 173.843668,183.459477 171.218291,208.804536" id="Fill-24" fill="#EEDA00"></path>
                    <path d="M226.538593,116.252758 C225.851156,10.7647736 149.829045,16.6065033 149.829045,16.6065033 C149.829045,16.6065033 73.8061809,10.7647736 73.1194975,116.252758" id="Fill-26" fill="#7AC8C4"></path>
                    <path d="M75.335804,107.553087 C75.335804,107.553087 65.083794,149.754912 64.7400754,160.063093 C64.3963568,170.371274 83.6438442,224.317599 83.6438442,224.317599 L188.81495,236.687567 L213.217462,222.255812 L244.494347,153.534101 L221.809673,105.772384 L124.199623,97.1823587 L75.335804,107.553087 Z" id="Fill-28" fill="#7AC8C4"></path>
                    <path d="M127.079397,134.015173 L111.725879,116.074763 L90.4703518,133.255567 L106.318342,151.773971 C111.202764,157.481564 119.870352,158.156016 125.580151,153.272836 C131.289196,148.388903 131.963819,139.722766 127.079397,134.015173" id="Fill-30" fill="#E60012"></path>
                    <path d="M224.321834,214.030141 C224.321834,214.030141 217.087161,248.714281 198.527111,266.581594 C198.527111,266.581594 179.624095,278.2643 162.782638,277.920669 C162.782638,277.920669 158.077613,276.546144 149.828367,276.202513 C141.579874,276.546144 136.874849,277.920669 136.874849,277.920669 C120.034146,278.2643 101.130377,266.581594 101.130377,266.581594 C82.5703266,248.714281 75.3356533,214.030141 75.3356533,214.030141" id="Fill-32" fill="#7AC8C4"></path>
                    <path d="M178.160503,79.4540804 C178.160503,91.1978261 165.465528,98.9008913 149.805226,98.9008913 C134.145678,98.9008913 121.450704,91.1978261 121.450704,79.4540804 C121.450704,70.185082 129.75799,54.9183634 149.805226,54.9183634 C168.407487,54.9183634 178.160503,70.185082 178.160503,79.4540804" id="Fill-34" fill="#FFFFFF"></path>
                    <path d="M112.665754,26.0383498 C112.665754,26.0383498 101.869523,11.7957424 91.5587186,22.1039237 C81.2479146,32.4121049 91.5587186,45.2628553 91.5587186,45.2628553" id="Fill-36" fill="#5C3418"></path>
                    <path d="M186.991884,26.0383498 C186.991884,26.0383498 197.788116,11.7957424 208.09892,22.1039237 C218.409724,32.4121049 208.09892,45.2628553 208.09892,45.2628553" id="Fill-38" fill="#5C3418"></path>
                    <path d="M106.775804,29.3412029 C106.775804,29.3412029 102.156709,23.2470248 97.7456533,27.6577116 C93.3338442,32.0683984 97.7456533,37.566497 97.7456533,37.566497" id="Fill-40" fill="#FFFFFF"></path>
                    <path d="M192.881759,29.3412029 C192.881759,29.3412029 197.500854,23.2470248 201.912663,27.6577116 C206.324472,32.0683984 201.912663,37.566497 201.912663,37.566497" id="Fill-42" fill="#FFFFFF"></path>
                    <polygon id="Fill-44" fill="#FFFFFF" points="185.660653 150.957395 148.591809 143.362845 157.599347 99.4157351 194.668945 107.010285"></polygon>
                    <path d="M111.751131,116.394053 L99.4842965,101.770136 C94.5991206,96.0617895 85.9315327,95.387338 80.2217337,100.271271 C74.5126884,105.154451 73.8380653,113.820588 78.7224874,119.528181 L90.5589196,133.649462 L111.751131,116.394053 Z" id="Fill-46" fill="#FFFFFF"></path>
                    <path d="M121.965678,131.028069 C121.965678,120.021321 130.891055,111.098969 141.900603,111.098969 C152.910151,111.098969 161.834774,120.021321 161.834774,131.028069 C161.834774,142.034816 152.910151,150.957169 141.900603,150.957169 C130.891055,150.957169 121.965678,142.034816 121.965678,131.028069" id="Fill-48" fill="#F9D3E3"></path>
                    <path d="M129.527261,131.028069 C129.527261,124.196139 135.066709,118.6581 141.900377,118.6581 C148.733291,118.6581 154.273492,124.196139 154.273492,131.028069 C154.273492,137.859999 148.733291,143.398037 141.900377,143.398037 C135.066709,143.398037 129.527261,137.859999 129.527261,131.028069 Z" id="Stroke-50" stroke="#DAA545" stroke-width="6.137" stroke-linecap="round" stroke-linejoin="round"></path>
                    <polygon id="Fill-52" fill="#E60012" points="199.723492 144.428554 186.220477 132.862652 227.580528 85.0836029 236.819472 100.911736"></polygon>
                    <polygon id="Fill-54" fill="#DAA545" points="188.383794 159.745536 172.813191 146.408728 211.284045 101.51814 226.855402 114.854194"></polygon>
                    <polygon id="Fill-56" fill="#595757" points="178.555402 174.491985 159.873241 158.489775 199.230528 112.565279 217.912688 128.567489"></polygon>
                    <polygon id="Fill-58" fill="#E60012" points="86.4167337 143.397886 86.4167337 153.706067 90.729799 153.706067 103.086332 226.207721 196.571759 226.207721 208.928291 153.706067 213.240603 153.706067 213.240603 143.397886"></polygon>
                    <path d="M73.1190452,116.252758 C73.1190452,116.252758 34.9376382,139.488554 49.0602513,185.661731 C61.7770854,227.23884 99.9554774,214.205724 106.457487,206.621724 C112.644422,199.406224 111.613266,180.851648 89.9605025,170.199836" id="Fill-60" fill="#5C3418"></path>
                    <path d="M209.697663,170.199534 C188.044146,180.851347 187.013744,199.406676 193.199925,206.622176 C199.701935,214.205423 237.880327,227.238539 250.597161,185.662183 C264.720528,139.488253 226.538367,116.252456 226.538367,116.252456" id="Fill-62" fill="#5C3418"></path>
                    <path d="M247.414824,184.958493 C244.91608,193.127268 241.242965,199.583163 236.497236,204.146073 C232.509799,207.97952 227.752764,210.494206 222.359548,211.620804 C209.963819,214.209341 197.219095,208.642667 194.145226,205.056394 C191.730151,202.240276 190.848241,197.476915 191.84397,192.625386 C192.816332,187.891415 196.451759,178.962279 209.877889,172.35793 C211.069598,171.770893 211.561055,170.3293 210.974623,169.137141 C210.387437,167.945736 208.945477,167.455911 207.753769,168.04144 C207.665578,168.084394 207.58191,168.128855 207.495226,168.173316 L209.638945,155.592346 L212.358543,155.592346 C213.401005,155.592346 214.24598,154.74834 214.24598,153.706143 L214.24598,143.397962 C214.24598,142.356518 213.401005,141.511758 212.358543,141.511758 L209.00804,141.511758 L218.743719,130.017446 C219.541206,129.075475 219.428894,127.666286 218.491206,126.862973 L218.002764,126.444737 L224.782915,118.54951 C226.569347,119.726597 234.435678,125.235246 240.985176,134.98352 C245.317085,141.431879 248.19799,148.426582 249.54799,155.772451 C251.240201,164.978903 250.522613,174.798766 247.414824,184.958493 Z M196.167588,264.664343 C195.182412,265.252887 190.881407,267.757024 185.079648,270.194845 C176.606533,273.756251 168.721357,275.592718 162.240452,275.521128 C160.990704,275.194076 156.352764,274.10365 149.047236,273.799958 C148.980151,273.796944 148.913065,273.796944 148.846734,273.799958 C141.541206,274.10365 136.903266,275.194076 135.652764,275.521128 C129.180151,275.594225 121.286683,273.755497 112.814322,270.194845 C107.011809,267.757024 102.71005,265.252133 101.726382,264.664343 C87.3316583,250.650823 79.8949749,225.738318 77.5997487,216.8235 C79.108794,217.002852 80.621608,217.088006 82.1223618,217.088006 C87.958794,217.088006 93.6150754,215.825011 98.2092965,213.999847 L100.34397,226.524299 C100.498492,227.430852 101.28392,228.094 102.204271,228.094 L195.689698,228.094 C196.609296,228.094 197.395477,227.430852 197.55,226.524299 L199.684673,213.999847 C204.278894,215.825764 209.934422,217.088006 215.771608,217.088006 C217.272362,217.088006 218.78593,217.002098 220.295729,216.8235 C218.003518,225.733796 210.578141,250.634998 196.167588,264.664343 Z M220.694472,284.285984 C223.096734,287.680095 223.59799,291.866216 222.069347,295.770499 C220.516583,299.735068 217.102764,302.628804 212.93593,303.511997 C198.013568,306.674006 183.74397,305.000311 174.764322,299.037256 C171.417588,296.814203 169.162312,294.14654 168.73191,291.900127 C167.953266,287.834578 166.431407,283.239265 165.350503,280.241535 C179.558291,279.316143 193.925879,271.532445 197.874874,269.243078 C208.997487,273.543742 216.672362,278.601752 220.694472,284.285984 Z M129.16206,291.900127 C128.731658,294.14654 126.476382,296.814203 123.128894,299.037256 C114.150754,305.000311 99.880402,306.673252 84.9580402,303.511997 C80.791206,302.628804 77.3773869,299.735068 75.8246231,295.770499 C74.2959799,291.866216 74.7972362,287.680095 77.1987437,284.285984 C81.221608,278.601752 88.8957286,273.543742 100.019095,269.243078 C103.96809,271.530938 118.335678,279.310114 132.543467,280.240028 C131.462563,283.237758 129.940704,287.833825 129.16206,291.900127 Z M50.4791457,184.958493 C47.3849246,174.842473 46.6605528,165.06255 48.3241206,155.890009 C49.6537688,148.562225 52.5060302,141.581841 56.8025126,135.142524 C64.1690955,124.101866 73.3560302,118.388998 73.4894472,118.306105 C73.5037688,118.297815 73.5150754,118.288772 73.529397,118.279729 C73.5655779,118.256369 73.6017588,118.232254 73.6364322,118.205879 C73.6680905,118.184025 73.6997487,118.161418 73.7291457,118.137303 C73.7577889,118.11545 73.7849246,118.091335 73.8128141,118.067221 C73.8459799,118.038585 73.8791457,118.009195 73.910804,117.979052 C73.9326633,117.957952 73.9537688,117.935345 73.9748744,117.913491 C73.979397,117.908969 73.9839196,117.904448 73.9884422,117.899173 C74.5552764,119.011453 75.2555276,120.064954 76.0869347,121.036314 L93.6957286,141.511758 L85.5346734,141.511758 C84.4922111,141.511758 83.6479899,142.356518 83.6479899,143.397962 L83.6479899,153.706143 C83.6479899,154.74834 84.4922111,155.592346 85.5346734,155.592346 L88.2550251,155.592346 L90.3987437,168.173316 C90.3120603,168.128855 90.228392,168.084394 90.1409548,168.04144 C88.9492462,167.455911 87.5057789,167.945736 86.9201005,169.137141 C86.3329146,170.3293 86.8236181,171.770893 88.0160804,172.35793 C101.442211,178.962279 105.077638,187.891415 106.05,192.625386 C107.045729,197.476915 106.163819,202.240276 103.749497,205.056394 C102.355779,206.682613 98.5801508,209.036788 93.2871859,210.633618 C89.0917085,211.898874 82.6070352,213.097815 75.5344221,211.620804 C70.1404523,210.493453 65.3841709,207.978766 61.3967337,204.146073 C56.6502513,199.583163 52.9778894,193.127268 50.4791457,184.958493 Z M89.1233668,36.8873733 C87.671608,31.8165529 88.7660804,27.4149091 92.3781407,23.8045211 C94.5768844,21.6063367 96.8457286,20.6206579 99.3067839,20.7819234 C102.998744,21.0283431 106.348492,23.7826674 108.244221,25.6862032 C105.104774,27.7095577 101.957035,30.0923685 98.898995,32.9054719 C96.0701005,35.5075736 93.4507538,38.3470521 91.0319095,41.4103431 C90.371608,40.2317485 89.6351759,38.6748582 89.1233668,36.8873733 Z M133.242965,20.4940569 C142.21809,18.5483208 148.70201,18.9997135 148.762312,19.004235 C148.883668,19.0140315 149.007286,19.0140315 149.127889,19.004235 C149.277136,18.9944385 164.177638,17.9921809 180.36407,25.9363908 C189.813317,30.5731507 197.869598,37.3229409 204.309045,45.9966134 C212.409799,56.9091634 217.985427,70.939262 220.878392,87.6965561 C220.897236,87.8050712 220.925126,87.9098184 220.957538,88.0123049 L210.722111,99.7628328 C209.894472,99.286572 208.820352,99.4493447 208.176633,100.199907 L199.313819,110.542 C198.422111,110.116229 197.322362,110.31668 196.646985,111.101154 L194.79196,113.254877 L195.933166,107.43048 C196.163819,106.252639 195.401759,105.108709 194.225879,104.868318 L157.156281,97.2737676 C155.975126,97.0326229 154.817337,97.7937358 154.574623,98.9768518 L151.971106,111.679901 C148.735176,109.841927 144.998744,108.786165 141.01809,108.786165 C131.441457,108.786165 123.259296,114.866779 120.130402,123.369389 L100.359799,100.266976 C97.5957286,97.0371444 93.7243719,95.0748296 89.4595477,94.7432556 C85.1962312,94.4116817 81.0670854,95.7507882 77.8364322,98.5141555 C76.8753769,99.3355545 76.0296482,100.257179 75.3030151,101.255669 C77.7090452,72.4547056 86.6894472,50.7094846 102.094975,36.5022954 C112.940955,26.5000665 125.020101,22.2762668 133.242965,20.4940569 Z M198.587186,20.7819234 C201.051256,20.6199043 203.317085,21.6063367 205.515829,23.8045211 C211.85804,30.1451189 208.985427,37.6876722 206.868844,41.4284289 C201.934673,35.1601746 196.172864,29.886642 189.659548,25.6764067 C191.557538,23.7736245 194.900503,21.0275895 198.587186,20.7819234 Z M232.944724,100.705558 L224.041206,111.1215 L213.613568,102.189351 L225.706281,88.3054464 L232.944724,100.705558 Z M202.442714,113.116973 L209.93593,104.373971 L222.427387,115.073259 L214.925126,123.808725 L202.442714,113.116973 Z M176.384925,141.511758 L198.588693,115.72661 L213.875126,128.820012 L203.125628,141.511758 L176.384925,141.511758 Z M189.537437,117.327962 L156.635427,110.710047 L158.421106,101.997189 L191.223618,108.716836 L189.537437,117.327962 Z M160.640955,141.511758 C162.362563,138.299259 163.265578,134.717507 163.265578,131.027993 C163.265578,124.819272 160.705025,119.199847 156.58794,115.160674 L187.753266,121.429682 L170.461055,141.511758 L160.640955,141.511758 Z M123.397236,131.027993 C123.397236,121.313631 131.30201,113.410868 141.01809,113.410868 C150.734925,113.410868 158.639698,121.313631 158.639698,131.027993 C158.639698,134.558502 157.599497,137.963917 155.631407,140.876493 C155.495729,141.076944 155.396231,141.29096 155.330653,141.511758 L126.857789,141.511758 C124.594221,138.462785 123.397236,134.841093 123.397236,131.027993 Z M110.626131,119.377691 L118.866332,129.0069 C118.806784,129.673062 118.771357,130.34676 118.771357,131.027993 C118.771357,134.739361 119.670603,138.306795 121.392211,141.511758 L99.7726131,141.511758 L99.7869347,141.498947 L93.0776382,133.698671 L110.626131,119.377691 Z M79.5979899,118.02502 C77.6374372,115.734146 76.6876884,112.802731 76.9236181,109.770337 C77.1595477,106.737942 78.5525126,103.98814 80.8439698,102.028086 C83.1354271,100.068031 86.0690955,99.1207851 89.1007538,99.354394 C92.1339196,99.5902636 94.8836683,100.982121 96.8449749,103.273748 L107.781407,116.053663 L90.2246231,130.381424 L79.5979899,118.02502 Z M87.4221106,151.819939 L87.4221106,145.284165 L124.704271,145.284165 C124.830905,145.306019 124.958291,145.320337 125.087186,145.320337 C125.218342,145.320337 125.349497,145.306772 125.479146,145.284165 L210.471859,145.284165 L210.471859,151.819939 L87.4221106,151.819939 Z M187.130653,191.658547 C185.822864,198.028534 187.079397,204.207866 190.490955,208.187507 C191.713568,209.613275 193.669598,211.063157 196.134422,212.368353 L194.096985,224.321593 L103.796985,224.321593 L101.759548,212.368353 C104.224372,211.063157 106.180402,209.613275 107.402261,208.187507 C110.814573,204.207866 112.071106,198.028534 110.762563,191.658547 C109.73593,186.655548 106.25804,177.72792 94.6281407,170.524477 L92.0834171,155.592346 L205.810553,155.592346 L203.265829,170.52523 C191.63593,177.72792 188.15804,186.655548 187.130653,191.658547 Z M244.979397,132.301539 C237.750754,121.541211 229.129899,115.627892 227.262814,114.422168 C227.197236,114.124505 227.068342,113.844928 226.880653,113.606044 L236.684925,102.137354 C237.206533,101.52771 237.284925,100.654314 236.880151,99.9610235 L227.640452,84.13289 C227.333668,83.6076467 226.793216,83.2625084 226.18794,83.2052366 C225.762814,83.165297 225.343719,83.2738121 224.993216,83.4991316 C222.058794,68.6732556 217.000251,55.9573955 209.928392,45.6062604 C210.888693,44.1691889 212.45201,41.5090617 213.396482,38.2106547 C215.338191,31.4307215 213.789196,25.2732429 208.918342,20.4028741 C205.718593,17.2046928 202.127638,15.7186388 198.242714,15.9838979 C192.376884,16.3855545 187.574623,20.8030235 185.415829,23.1496626 C184.382412,22.5814655 183.336181,22.0313542 182.269598,21.5121396 C165.729648,13.4646897 150.842714,14.078855 148.944724,14.1949059 C147.759045,14.1248232 141.280402,13.8557962 132.432663,15.7472747 C126.947487,16.9198407 119.863568,19.1029536 112.484925,23.1571984 C110.329146,20.8120665 105.523116,16.3863081 99.6512563,15.9838979 C95.7663317,15.7193924 92.1753769,17.2046928 88.9756281,20.4028741 C84.1047739,25.2732429 82.5557789,31.4307215 84.4974874,38.2106547 C85.438191,41.4962509 86.9932161,44.1488423 87.9542714,45.5889281 C76.2851759,62.6144957 70.2105528,85.8555672 69.8502513,114.943644 C67.0062814,116.894655 59.4,122.647462 52.9145729,132.301539 C45.5246231,143.30075 38.3057789,161.608906 45.8773869,186.365421 C51.8721106,205.963701 63.1952261,213.254559 72.3859296,215.803911 C73.0477387,218.632086 74.869598,225.815936 78.1409548,234.457205 C83.1346734,247.645558 89.1361809,258.120279 96.009799,265.665847 C85.1947236,270.136066 77.5530151,275.456321 73.2708543,281.507545 C69.9663317,286.177462 69.2457286,292.164632 71.3442211,297.524073 C73.4886935,303.001071 78.2050251,306.998798 83.9600503,308.218086 C89.7625628,309.44717 94.969598,309.941516 99.5947236,309.941516 C113.535678,309.941516 122.174623,305.446429 125.79196,303.044025 C130.324372,300.033485 133.2,296.397475 133.887437,292.805173 C134.792714,288.080998 136.870854,282.350798 137.782161,279.958944 C139.567839,279.561809 143.434673,278.846664 148.946985,278.610041 C154.46005,278.846664 158.328392,279.561809 160.111809,279.95819 C161.023116,282.350798 163.101256,288.080998 164.006533,292.805173 C164.69397,296.397475 167.569598,300.033485 172.10201,303.044025 C175.719347,305.447183 184.35603,309.941516 198.299246,309.941516 C202.923618,309.941516 208.132915,309.44717 213.93392,308.218086 C219.688945,306.998798 224.405276,303.001071 226.549749,297.524073 C228.648241,292.164632 227.927638,286.177462 224.623116,281.507545 C220.340955,275.456321 212.699246,270.136066 201.884171,265.665847 C208.757789,258.120279 214.759296,247.645558 219.753015,234.457205 C223.024372,225.81669 224.846231,218.632086 225.507286,215.803911 C234.69799,213.254559 246.021106,205.964454 252.015829,186.365421 C259.588191,161.608906 252.368593,143.30075 244.979397,132.301539 Z" id="Fill-64" fill="#231815"></path>
                    <path d="M120.506005,58.0968763 C125.061784,58.0968763 128.754497,54.4051021 128.754497,49.850482 C128.754497,45.295862 125.061784,41.6040878 120.506005,41.6040878 C115.950226,41.6040878 112.257513,45.295862 112.257513,49.850482 C112.257513,54.4051021 115.950226,58.0968763 120.506005,58.0968763" id="Fill-66" fill="#231815"></path>
                    <path d="M177.387965,58.0968763 C181.943744,58.0968763 185.636457,54.4051021 185.636457,49.850482 C185.636457,45.295862 181.943744,41.6040878 177.387965,41.6040878 C172.832186,41.6040878 169.139472,45.295862 169.139472,49.850482 C169.139472,54.4051021 172.832186,58.0968763 177.387965,58.0968763" id="Fill-68" fill="#231815"></path>
                    <path d="M142.589774,84.142159 C142.627462,84.1429126 142.664397,84.1429126 142.701332,84.1429126 C145.425452,84.1429126 147.623442,82.6515835 148.94706,81.4579173 C150.269925,82.6515835 152.467915,84.1436661 155.192035,84.1429126 C155.22897,84.1429126 155.266658,84.1429126 155.303593,84.142159 C158.262136,84.0976979 160.990025,82.3456312 163.409623,78.9341876 C163.958367,78.1602639 163.775201,77.0879237 163.00108,76.538566 C162.22696,75.9899618 161.154347,76.1730811 160.605603,76.9462512 C158.859874,79.407434 157.064397,80.6719364 155.268166,80.706601 C153.164397,80.7322226 151.387764,79.1120318 150.664899,78.3358474 L150.664899,73.8822067 C155.159623,73.1090366 158.570427,69.3614976 158.570427,64.8520922 C158.570427,59.7820254 154.425452,59.5152591 149.109874,59.5152591 C143.79505,59.5152591 139.323693,59.7820254 139.323693,64.8520922 C139.323693,69.3614976 142.733744,73.1090366 147.228467,73.8822067 L147.228467,78.3350938 C146.512387,79.1060032 144.773442,80.7073545 142.701332,80.7073545 C142.676457,80.7073545 142.650829,80.706601 142.625201,80.706601 C140.82897,80.6719364 139.033492,79.407434 137.288518,76.9462512 C136.739774,76.1730811 135.666407,75.9899618 134.892286,76.538566 C134.118166,77.0879237 133.935754,78.1602639 134.484497,78.9341876 C136.904849,82.3456312 139.631231,84.0976979 142.589774,84.142159" id="Fill-70" fill="#231815"></path>
                    <polygon id="Fill-72" fill="#5C3418" points="103.830678 358.669244 103.830678 348.361063 69.804799 348.361063 69.804799 330.492996 58.1191206 330.492996 58.1191206 348.361063 24.0932412 348.361063 24.0932412 358.669244 56.1329397 358.669244 23.7495226 399.902722 33.0291709 408.492748 63.9615829 366.584818 94.8947487 408.492748 104.174397 399.902722 71.7909799 358.669244"></polygon>
                    <path d="M130.524347,380.316575 L120.577613,380.316575 L120.577613,341.144884 L130.524347,341.144884 L126.484899,360.731106 L130.524347,380.316575 Z M138.772839,380.316575 L134.733392,360.731106 L138.772839,341.144884 L138.772839,331.180334 L120.577613,331.180334 L115.745955,331.180334 L111.256508,331.180334 L111.256508,409.180086 L120.577613,409.180086 L120.577613,390.281125 L138.772839,390.281125 L138.772839,380.316575 Z" id="Fill-74" fill="#5C3418"></path>
                    <path d="M174.822211,369.407718 C174.002864,368.336885 174.543317,366.672233 176.028995,365.691075 C177.514673,364.709164 179.383266,364.782261 180.201859,365.853094 C181.021206,366.923928 180.480754,368.588579 178.995075,369.569737 C177.508643,370.551648 175.640804,370.478551 174.822211,369.407718 Z M175.386784,373.303711 C175.381508,373.385851 175.373216,373.467991 175.362663,373.550131 C175.357387,373.585549 175.355126,373.620214 175.349095,373.655632 C175.331005,373.770929 175.306884,373.886226 175.277487,374.00077 C175.26995,374.030913 175.260905,374.060303 175.252613,374.090446 C175.226985,374.182382 175.196834,374.275072 175.164422,374.367009 C175.151608,374.400166 175.140302,374.43257 175.127487,374.466481 C175.080754,374.584039 175.030251,374.700843 174.972211,374.816894 C174.458141,375.828948 173.51593,376.538818 172.450854,376.804077 C172.204372,376.865117 171.953367,376.905056 171.697839,376.917114 C171.686533,376.917114 171.67598,376.917114 171.664673,376.917114 C171.361658,376.928417 171.054874,376.904303 170.750352,376.839495 C170.619196,376.811613 170.491055,376.777702 170.367437,376.738516 C170.365176,376.737762 170.362915,376.737009 170.361407,376.736255 C169.581256,376.487575 168.94206,376.016589 168.480754,375.420509 C168.430251,375.354948 168.378995,375.289387 168.333015,375.220811 C168.085779,374.855327 167.733015,374.587053 167.335779,374.431063 C167.31995,374.425034 167.305628,374.415991 167.289799,374.409962 C167.27397,374.404687 167.256633,374.401673 167.240804,374.396398 C166.837538,374.258493 166.393568,374.235886 165.96995,374.354951 C165.89005,374.377559 165.808643,374.393384 165.72799,374.410716 C164.99005,374.568214 164.197839,374.51471 163.441809,374.199714 L163.435779,374.197454 C163.31593,374.147718 163.196834,374.091199 163.078492,374.027145 C162.804874,373.880198 162.555377,373.700093 162.330754,373.49512 C162.322462,373.488338 162.313417,373.481555 162.305879,373.47402 C162.118191,373.299943 161.952362,373.107028 161.804623,372.901301 C161.162412,372.010573 160.902362,370.859861 161.165427,369.755117 C161.195578,369.629269 161.233266,369.50719 161.27397,369.388125 C161.285276,369.354214 161.297337,369.321056 161.310151,369.287899 C161.34407,369.196716 161.381005,369.107794 161.420955,369.019625 C161.433769,368.991743 161.445829,368.963107 161.459397,368.935225 C161.511407,368.82897 161.56794,368.72573 161.628995,368.626258 C161.647085,368.595362 161.667437,368.566726 161.686281,368.536583 C161.731508,368.467253 161.778241,368.399431 161.827236,368.333117 C161.855126,368.295438 161.883015,368.258513 161.912412,368.222341 C161.960653,368.162055 162.011156,368.104029 162.062412,368.047511 C162.112915,367.991746 162.164925,367.937489 162.219196,367.884738 C162.265176,367.839524 162.31191,367.793555 162.360905,367.750602 C162.409146,367.707648 162.459648,367.666955 162.510151,367.625508 C162.542563,367.599133 162.576482,367.573511 162.610402,367.548643 C162.810151,367.398681 163.024221,367.269819 163.248844,367.161304 C163.259397,367.156029 163.26995,367.150754 163.280503,367.145479 C163.614422,366.987982 163.970955,366.879466 164.338794,366.821441 C164.345578,366.819934 164.350854,366.81692 164.359146,366.816166 C166.075477,366.46726 166.841307,365.403209 166.880503,365.39492 C166.881256,365.39492 166.881256,365.394166 166.88201,365.393412 C167.059146,365.176382 167.258141,364.982713 167.475226,364.813158 C167.482764,364.807883 167.489548,364.801854 167.497839,364.795826 C167.562663,364.74609 167.629749,364.698614 167.697588,364.6534 C167.714925,364.641342 167.732261,364.630792 167.749598,364.619489 C167.816683,364.576535 167.884523,364.534334 167.953869,364.495902 C167.968191,364.488366 167.981759,364.481584 167.99608,364.474048 C168.145327,364.393416 168.299095,364.322579 168.458141,364.2638 C168.463417,364.26154 168.468693,364.259279 168.47397,364.257772 C168.533518,364.235164 168.593819,364.217079 168.654874,364.198239 C168.697839,364.184675 168.74005,364.171864 168.783015,364.159807 C168.83804,364.144735 168.893819,364.131924 168.949598,364.119114 C169.001608,364.107056 169.054372,364.09726 169.107136,364.088217 C169.157638,364.079174 169.208141,364.070131 169.259397,364.062595 C169.331759,364.053552 169.404874,364.04677 169.47799,364.041495 C169.514925,364.038481 169.552613,364.034713 169.590302,364.033206 C169.690553,364.028684 169.792312,364.029438 169.893317,364.033206 C169.931759,364.034713 169.970201,364.038481 170.007889,364.041495 C170.081759,364.04677 170.156382,364.054306 170.230251,364.063349 C170.270955,364.069377 170.310905,364.074652 170.350854,364.082188 C170.426985,364.094999 170.503869,364.110824 170.58,364.128156 C170.614673,364.136446 170.650101,364.143982 170.684774,364.153024 C170.795578,364.182414 170.905628,364.215571 171.014171,364.255511 C171.123467,364.295451 171.228241,364.341419 171.331508,364.389648 C171.36392,364.405473 171.395578,364.422805 171.42799,364.439384 C171.497337,364.475555 171.56593,364.511727 171.633015,364.551667 C171.666935,364.572767 171.701608,364.593867 171.736281,364.615721 C171.798844,364.65566 171.859899,364.698614 171.920201,364.742322 C171.950352,364.764929 171.98201,364.786783 172.012161,364.810144 C172.092814,364.872691 172.170452,364.937498 172.244322,365.006074 C172.272211,365.031695 172.297085,365.058824 172.324221,365.085199 C172.376231,365.136443 172.428241,365.188439 172.477236,365.242697 C172.51191,365.280376 172.544322,365.320315 172.577487,365.360255 C172.611407,365.401702 172.645327,365.443148 172.676985,365.486102 C172.712412,365.531317 172.745578,365.577285 172.778744,365.624761 C172.803618,365.661686 172.827739,365.698611 172.851106,365.73629 C172.885025,365.789794 172.920452,365.843298 172.951357,365.899063 C172.953618,365.903584 172.955879,365.908106 172.958894,365.913381 C173.041809,366.061082 173.113417,366.214811 173.175226,366.373063 C173.181256,366.387381 173.18804,366.402452 173.193317,366.41677 C173.221206,366.491374 173.24608,366.566732 173.268693,366.64209 C173.275477,366.662436 173.281508,366.682029 173.286784,366.702376 C173.310151,366.780748 173.330503,366.859873 173.347839,366.940506 C173.349347,366.949549 173.351608,366.958592 173.353116,366.967635 C173.409648,367.237416 173.43603,367.514732 173.430754,367.794309 L173.430754,367.79657 C173.455628,367.82822 173.352362,369.134923 174.436281,370.510201 C174.441558,370.51623 174.443819,370.521505 174.447588,370.527533 C174.691809,370.808617 174.893065,371.122106 175.045327,371.458201 C175.050603,371.469505 175.055879,371.480055 175.060402,371.492112 C175.161407,371.718939 175.240553,371.955562 175.296332,372.198967 C175.306131,372.240414 175.314422,372.281107 175.323467,372.322554 C175.335528,372.386608 175.346834,372.449908 175.356633,372.514716 C175.365678,372.57877 175.371709,372.643578 175.377739,372.708385 C175.384523,372.78299 175.389799,372.858347 175.39206,372.933705 C175.394322,373.01057 175.395829,373.087435 175.393568,373.1643 C175.39206,373.210268 175.389045,373.25699 175.386784,373.303711 Z M162.970704,359.536611 C164.288291,359.248745 165.761156,360.400964 166.259397,362.110077 C166.758392,363.818436 166.095075,365.43712 164.777487,365.72574 C163.459899,366.013606 161.987789,364.862141 161.488794,363.152274 C160.989799,361.443161 161.653869,359.824478 162.970704,359.536611 Z M166.670955,359.430357 C166.881256,357.370831 168.22598,355.820722 169.67397,355.969177 C171.121206,356.117632 172.123719,357.907377 171.913417,359.966904 C171.701608,362.02643 170.357638,363.575784 168.909648,363.428083 C167.461658,363.279629 166.459146,361.489883 166.670955,359.430357 Z M173.101357,360.402471 C174.27196,358.694866 176.19407,357.976707 177.394824,358.799613 C178.594824,359.621765 178.618945,361.673002 177.448342,363.381362 C176.276985,365.088967 174.354874,365.806373 173.154874,364.98422 C171.954874,364.161314 171.930754,362.110077 173.101357,360.402471 Z M187.921206,364.51022 L187.921206,353.171145 L172.111658,353.171145 L165.987286,353.171145 L154.239045,353.171145 L154.239045,341.144808 L188.953116,341.144808 L188.953116,331.180258 L144.959397,331.180258 L144.959397,338.396513 L144.959397,341.144808 L144.959397,371.382843 L138.773216,406.08733 L148.396583,407.461854 L154.239045,371.382843 L154.239045,368.153012 L163.862412,385.470967 L151.49005,400.589231 L158.363668,409.18001 L171.080503,393.030099 L171.085025,392.874862 L185.172211,408.836379 L190.327236,398.528198 L176.923719,384.783705 L187.921206,364.51022 Z" id="Fill-76" fill="#5C3418"></path>
                    <polygon id="Fill-78" fill="#5C3418" points="230.196633 332.211227 220.229548 332.211227 224.354171 338.052957 210.949146 338.052957 214.386332 331.180334 204.762965 331.180334 197.20191 344.924826 239.132563 344.924826"></polygon>
                    <mask id="mask-4" fill="white">
                        <use xlink:href="#path-3"></use>
                    </mask>
                    <g id="Clip-81"></g>
                    <path d="M208.715578,371.554207 L227.963065,371.554207 L227.963065,366.056862 L208.715578,366.056862 L208.715578,371.554207 Z M208.715578,361.246025 L227.963065,361.246025 L227.963065,355.74868 L208.715578,355.74868 L208.715578,361.246025 Z M199.951508,389.93772 L208.715578,389.93772 L208.715578,377.395936 L227.962312,377.395936 L227.962312,383.237666 L218.167085,383.237666 L218.167085,389.93772 L236.383417,389.93772 L236.383417,349.391504 L199.951508,349.391504 L199.951508,389.93772 Z" id="Fill-80" fill="#5C3418" mask="url(#mask-4)"></path>
                    <polygon id="Fill-82" fill="#5C3418" mask="url(#mask-4)" points="274.533543 348.704618 252.53706 348.704618 252.53706 344.237413 274.533543 340.458224 273.158668 332.898339 252.53706 335.991019 252.53706 331.180183 242.91294 331.180183 242.91294 357.294644 274.533543 357.294644"></polygon>
                    <polygon id="Fill-83" fill="#5C3418" mask="url(#mask-4)" points="274.533543 381.003913 252.53706 381.003913 252.53706 376.536708 274.533543 372.757519 273.158668 365.197633 252.53706 368.290314 252.53706 361.418444 242.91294 361.418444 242.91294 389.593938 274.533543 389.593938"></polygon>
                    <polygon id="Fill-84" fill="#5C3418" mask="url(#mask-4)" points="197.201608 402.994875 204.419698 409.180236 215.761658 398.184039 208.199849 391.999432"></polygon>
                    <polygon id="Fill-85" fill="#5C3418" mask="url(#mask-4)" points="218.167236 398.184416 227.790603 409.179859 235.695377 404.025392 225.728291 392.686317"></polygon>
                    <polygon id="Fill-86" fill="#5C3418" mask="url(#mask-4)" points="237.757915 398.184416 247.381281 409.179859 254.599372 403.681761 244.975251 392.686317"></polygon>
                    <polygon id="Fill-87" fill="#5C3418" mask="url(#mask-4)" points="265.253518 392.686543 258.036181 397.841011 268.003266 409.180086 275.90804 403.681987"></polygon>
                </g>
            </g>
        </g>
    </g>
</svg>