<?xml version="1.0" encoding="UTF-8"?>
<svg width="50px" height="48px" viewBox="0 0 50 48" version="1.1" xmlns="http://www.w3.org/2000/svg" xmlns:xlink="http://www.w3.org/1999/xlink">
    <!-- Generator: Sketch 52.5 (67469) - http://www.bohemiancoding.com/sketch -->
    <title>Group 8</title>
    <desc>Created with Sketch.</desc>
    <defs>
        <linearGradient x1="0%" y1="0%" x2="100%" y2="100%" id="linearGradient-1">
            <stop stop-color="#7AC8C4" offset="0%"></stop>
            <stop stop-color="#15A5B2" offset="100%"></stop>
        </linearGradient>
    </defs>
    <g id="Page-1" stroke="none" stroke-width="1" fill="none" fill-rule="evenodd">
        <g id="osakakuma-website-copy" transform="translate(-585.000000, -2929.000000)" fill="url(#linearGradient-1)">
            <g id="Group-8" transform="translate(585.000000, 2929.000000)">
                <g id="Group-6">
                    <path d="M4.53442708,40.3073177 C6.49223958,39.796901 8.18286458,39.4398698 9.81333333,38.9013281 C10.8969271,38.5435156 11.6354688,38.7479427 12.4852083,39.4950781 C17.1865104,43.6286719 22.7276563,45.3453385 28.8815625,44.414349 C40.4372917,42.6659115 47.7352083,33.0273698 46.5602083,21.373724 C45.4250521,10.1138281 34.0419792,1.55445312 22.8875521,3.57346354 C9.08572917,6.07138021 1.75291667,19.7755469 7.33260417,32.6898698 C7.7159375,33.5771094 7.69484375,34.3075781 7.23182292,35.1411719 C6.34953125,36.7291927 5.54458333,38.3601823 4.53442708,40.3073177 M26.1083854,0.260442708 C38.8120313,0.257057292 48.9602083,9.85210937 49.7565625,23.0258073 C50.4563021,34.6028906 42.0044792,45.661224 29.6253125,47.4896094 C22.8846875,48.4851823 16.8094271,46.8099219 11.4182813,42.6817969 C10.7565625,42.175026 10.1992708,42.0479427 9.41932292,42.2638281 C7.20734375,42.8758073 4.97817708,43.426849 2.75239583,43.9896094 C1.91307292,44.201849 1.04458333,44.5010677 0.357604167,43.6432552 C-0.321041667,42.7963802 0.101614583,42.0203385 0.51359375,41.2351823 C1.64119792,39.0867448 2.72401042,36.9138281 3.89875,34.7914323 C4.30057292,34.065651 4.27869792,33.4867448 3.98026042,32.7346615 C-2.19421875,17.1747656 9.33885417,0.264869792 26.1083854,0.260442708" id="Fill-1"></path>
                    <path d="M31.1034115,38.2109896 C29.1336198,37.5672396 27.2377865,37.1867708 25.5640885,36.3573437 C19.7914323,33.4964062 15.4497656,29.1138542 12.581276,23.3404167 C11.9739844,22.1177604 11.6138281,20.7482292 11.2997656,19.4089062 C10.7429948,17.0336458 11.3534115,14.9544792 13.1565365,13.2526562 C13.912526,12.5388542 14.586224,11.7346875 15.3682552,11.0526562 C16.6700781,9.9175 18.0810156,9.92947917 19.3445573,11.0786979 C20.2739844,11.9240104 21.1685156,12.8135937 22.0151302,13.7414583 C23.2135677,15.0552604 23.1940365,16.49875 22.0372656,17.8279167 C21.9234635,17.9586458 21.7971615,18.0784375 21.6758073,18.2021354 C19.6929948,20.2219271 19.586224,20.8310417 21.1010677,23.2172396 C22.6940365,25.726875 24.787526,27.6828646 27.6409115,28.7219271 C28.554974,29.0547396 29.312526,28.9638542 29.9476823,28.1414583 C30.2890885,27.6995312 30.7229427,27.3224479 31.1461198,26.9516146 C32.481276,25.7802604 33.9349219,25.7651562 35.2252865,26.9542187 C36.1489844,27.8057812 37.0440365,28.6943229 37.8916927,29.6211458 C38.9325781,30.7596875 39.0708594,32.205 38.1497656,33.2904167 C37.1445573,34.4747917 36.1234635,35.7138542 34.8773698,36.605 C33.8078385,37.3701042 32.4114844,37.6781771 31.1034115,38.2109896" id="Fill-4"></path>
                </g>
            </g>
        </g>
    </g>
</svg>