<svg id="Layer_1" data-name="Layer 1" xmlns="http://www.w3.org/2000/svg" xmlns:xlink="http://www.w3.org/1999/xlink" width="32" height="32" viewBox="0 0 60 60"><defs><style>.cls-1{filter:url(#filter-3);}.cls-2{fill:url(#linear-gradient);}.cls-3{fill:#fff;}</style><filter id="filter-3" x="-57.5" y="-47.5" width="215" height="215" name="filter-3"><feOffset result="shadowOffsetOuter1" dy="4" in="SourceAlpha"/><feGaussianBlur result="shadowBlurOuter1" stdDeviation="7" in="shadowOffsetOuter1"/><feColorMatrix values="0 0 0 0 0.3 0 0 0 0 0.73 0 0 0 0 0.85 0 0 0 0.5 0" in="shadowBlurOuter1"/></filter><linearGradient id="linear-gradient" x1="-268.48" y1="418.12" x2="-266.98" y2="416.62" gradientTransform="matrix(40, 0, 0, -40, 10739, 16724.92)" gradientUnits="userSpaceOnUse"><stop offset="0" stop-color="#7ac8c4"/><stop offset="1" stop-color="#15a5b2"/></linearGradient></defs><title>icon-enter</title><g id="Page-1"><g id="osakakuma-website-copy"><g id="arrow"><g id="Oval-2"><g class="cls-1"><circle id="path-2" cx="30" cy="30" r="30"/></g><circle id="path-2-2" data-name="path-2" class="cls-2" cx="30" cy="30" r="30"/></g><path id="Path" class="cls-3" d="M21.9,30.85H35.35l-3.52,3.52a.9.9,0,0,0,0,1.27.92.92,0,0,0,.64.26.93.93,0,0,0,.64-.26l5-5.06a.89.89,0,0,0,0-1.26l-5-5.06a.9.9,0,0,0-1.27,0,.88.88,0,0,0,0,1.27l3.52,3.52H21.9a.9.9,0,0,0,0,1.8Z"/></g></g></g></svg>