<?xml version="1.0" encoding="UTF-8"?>
<svg width="250px" height="148px" viewBox="0 0 250 148" version="1.1" xmlns="http://www.w3.org/2000/svg" xmlns:xlink="http://www.w3.org/1999/xlink">
    <!-- Generator: Sketch 52.5 (67469) - http://www.bohemiancoding.com/sketch -->
    <title>Group 2</title>
    <desc>Created with Sketch.</desc>
    <defs>
        <polygon id="path-1" points="0 0.122160149 99.8208955 0.122160149 99.8208955 99.7572626 0 99.7572626"></polygon>
        <path d="M0.121828358,46.960149 C0.121828358,72.8638734 21.1598881,93.8629423 47.1119403,93.8629423 C73.0639925,93.8629423 94.1022388,72.8638734 94.1022388,46.960149 C94.1022388,21.0566108 73.0639925,0.0575418994 47.1119403,0.0575418994 C21.1598881,0.0575418994 0.121828358,21.0566108 0.121828358,46.960149" id="path-3"></path>
        <path d="M0.121828358,46.960149 C0.121828358,72.8638734 21.1598881,93.8629423 47.1119403,93.8629423 C73.0639925,93.8629423 94.1022388,72.8638734 94.1022388,46.960149 C94.1022388,21.0566108 73.0639925,0.0575418994 47.1119403,0.0575418994 C21.1598881,0.0575418994 0.121828358,21.0566108 0.121828358,46.960149" id="path-5"></path>
        <path d="M0.121828358,46.960149 C0.121828358,72.8638734 21.1598881,93.8629423 47.1119403,93.8629423 C73.0639925,93.8629423 94.1022388,72.8638734 94.1022388,46.960149 C94.1022388,21.0566108 73.0639925,0.0575418994 47.1119403,0.0575418994 C21.1598881,0.0575418994 0.121828358,21.0566108 0.121828358,46.960149" id="path-7"></path>
        <path d="M0.121828358,46.960149 C0.121828358,72.8638734 21.1598881,93.8629423 47.1119403,93.8629423 C73.0639925,93.8629423 94.1022388,72.8638734 94.1022388,46.960149 C94.1022388,21.0566108 73.0639925,0.0575418994 47.1119403,0.0575418994 C21.1598881,0.0575418994 0.121828358,21.0566108 0.121828358,46.960149" id="path-9"></path>
        <path d="M0.121828358,46.960149 C0.121828358,72.8638734 21.1598881,93.8629423 47.1119403,93.8629423 C73.0639925,93.8629423 94.1022388,72.8638734 94.1022388,46.960149 C94.1022388,21.0566108 73.0639925,0.0575418994 47.1119403,0.0575418994 C21.1598881,0.0575418994 0.121828358,21.0566108 0.121828358,46.960149" id="path-11"></path>
        <path d="M0.121828358,46.960149 C0.121828358,72.8638734 21.1598881,93.8629423 47.1119403,93.8629423 C73.0639925,93.8629423 94.1022388,72.8638734 94.1022388,46.960149 C94.1022388,21.0566108 73.0639925,0.0575418994 47.1119403,0.0575418994 C21.1598881,0.0575418994 0.121828358,21.0566108 0.121828358,46.960149" id="path-13"></path>
        <path d="M0.121828358,46.960149 C0.121828358,72.8638734 21.1598881,93.8629423 47.1119403,93.8629423 C73.0639925,93.8629423 94.1022388,72.8638734 94.1022388,46.960149 C94.1022388,21.0566108 73.0639925,0.0575418994 47.1119403,0.0575418994 C21.1598881,0.0575418994 0.121828358,21.0566108 0.121828358,46.960149" id="path-15"></path>
        <path d="M0.121828358,46.960149 C0.121828358,72.8638734 21.1598881,93.8629423 47.1119403,93.8629423 C73.0639925,93.8629423 94.1022388,72.8638734 94.1022388,46.960149 C94.1022388,21.0566108 73.0639925,0.0575418994 47.1119403,0.0575418994 C21.1598881,0.0575418994 0.121828358,21.0566108 0.121828358,46.960149 Z" id="path-17"></path>
        <path d="M0.121828358,46.960149 C0.121828358,72.8638734 21.1598881,93.8629423 47.1119403,93.8629423 C73.0639925,93.8629423 94.1022388,72.8638734 94.1022388,46.960149 C94.1022388,21.0566108 73.0639925,0.0575418994 47.1119403,0.0575418994 C21.1598881,0.0575418994 0.121828358,21.0566108 0.121828358,46.960149" id="path-19"></path>
        <path d="M0.121828358,46.960149 C0.121828358,72.8638734 21.1598881,93.8629423 47.1119403,93.8629423 C73.0639925,93.8629423 94.1022388,72.8638734 94.1022388,46.960149 C94.1022388,21.0566108 73.0639925,0.0575418994 47.1119403,0.0575418994 C21.1598881,0.0575418994 0.121828358,21.0566108 0.121828358,46.960149" id="path-21"></path>
        <path d="M0.121828358,46.960149 C0.121828358,72.8638734 21.1598881,93.8629423 47.1119403,93.8629423 C73.0639925,93.8629423 94.1022388,72.8638734 94.1022388,46.960149 C94.1022388,21.0566108 73.0639925,0.0575418994 47.1119403,0.0575418994 C21.1598881,0.0575418994 0.121828358,21.0566108 0.121828358,46.960149" id="path-23"></path>
        <path d="M0.121828358,46.960149 C0.121828358,72.8638734 21.1598881,93.8629423 47.1119403,93.8629423 C73.0639925,93.8629423 94.1022388,72.8638734 94.1022388,46.960149 C94.1022388,21.0566108 73.0639925,0.0575418994 47.1119403,0.0575418994 C21.1598881,0.0575418994 0.121828358,21.0566108 0.121828358,46.960149" id="path-25"></path>
        <path d="M0.121828358,46.960149 C0.121828358,72.8638734 21.1598881,93.8629423 47.1119403,93.8629423 C73.0639925,93.8629423 94.1022388,72.8638734 94.1022388,46.960149 C94.1022388,21.0566108 73.0639925,0.0575418994 47.1119403,0.0575418994 C21.1598881,0.0575418994 0.121828358,21.0566108 0.121828358,46.960149" id="path-27"></path>
        <path d="M0.121828358,46.960149 C0.121828358,72.8638734 21.1598881,93.8629423 47.1119403,93.8629423 C73.0639925,93.8629423 94.1022388,72.8638734 94.1022388,46.960149 C94.1022388,21.0566108 73.0639925,0.0575418994 47.1119403,0.0575418994 C21.1598881,0.0575418994 0.121828358,21.0566108 0.121828358,46.960149" id="path-29"></path>
        <path d="M0.121828358,46.960149 C0.121828358,72.8638734 21.1598881,93.8629423 47.1119403,93.8629423 C73.0639925,93.8629423 94.1022388,72.8638734 94.1022388,46.960149 C94.1022388,21.0566108 73.0639925,0.0575418994 47.1119403,0.0575418994 C21.1598881,0.0575418994 0.121828358,21.0566108 0.121828358,46.960149 Z" id="path-31"></path>
        <path d="M0.121828358,46.960149 C0.121828358,72.8638734 21.1598881,93.8629423 47.1119403,93.8629423 C73.0639925,93.8629423 94.1022388,72.8638734 94.1022388,46.960149 C94.1022388,21.0566108 73.0639925,0.0575418994 47.1119403,0.0575418994 C21.1598881,0.0575418994 0.121828358,21.0566108 0.121828358,46.960149 Z" id="path-33"></path>
        <path d="M0.121828358,46.960149 C0.121828358,72.8638734 21.1598881,93.8629423 47.1119403,93.8629423 C73.0639925,93.8629423 94.1022388,72.8638734 94.1022388,46.960149 C94.1022388,21.0566108 73.0639925,0.0575418994 47.1119403,0.0575418994 C21.1598881,0.0575418994 0.121828358,21.0566108 0.121828358,46.960149" id="path-35"></path>
        <path d="M0.121828358,46.960149 C0.121828358,72.8638734 21.1598881,93.8629423 47.1119403,93.8629423 C73.0639925,93.8629423 94.1022388,72.8638734 94.1022388,46.960149 C94.1022388,21.0566108 73.0639925,0.0575418994 47.1119403,0.0575418994 C21.1598881,0.0575418994 0.121828358,21.0566108 0.121828358,46.960149 Z" id="path-37"></path>
        <path d="M0.121828358,46.960149 C0.121828358,72.8638734 21.1598881,93.8629423 47.1119403,93.8629423 C73.0639925,93.8629423 94.1022388,72.8638734 94.1022388,46.960149 C94.1022388,21.0566108 73.0639925,0.0575418994 47.1119403,0.0575418994 C21.1598881,0.0575418994 0.121828358,21.0566108 0.121828358,46.960149 Z" id="path-39"></path>
        <path d="M0.121828358,46.960149 C0.121828358,72.8638734 21.1598881,93.8629423 47.1119403,93.8629423 C73.0639925,93.8629423 94.1022388,72.8638734 94.1022388,46.960149 C94.1022388,21.0566108 73.0639925,0.0575418994 47.1119403,0.0575418994 C21.1598881,0.0575418994 0.121828358,21.0566108 0.121828358,46.960149 Z" id="path-41"></path>
        <path d="M0.121828358,46.960149 C0.121828358,72.8638734 21.1598881,93.8629423 47.1119403,93.8629423 C73.0639925,93.8629423 94.1022388,72.8638734 94.1022388,46.960149 C94.1022388,21.0566108 73.0639925,0.0575418994 47.1119403,0.0575418994 C21.1598881,0.0575418994 0.121828358,21.0566108 0.121828358,46.960149 Z" id="path-43"></path>
        <path d="M0.121828358,46.960149 C0.121828358,72.8638734 21.1598881,93.8629423 47.1119403,93.8629423 C73.0639925,93.8629423 94.1022388,72.8638734 94.1022388,46.960149 C94.1022388,21.0566108 73.0639925,0.0575418994 47.1119403,0.0575418994 C21.1598881,0.0575418994 0.121828358,21.0566108 0.121828358,46.960149 Z" id="path-45"></path>
        <path d="M0.121828358,46.960149 C0.121828358,72.8638734 21.1598881,93.8629423 47.1119403,93.8629423 C73.0639925,93.8629423 94.1022388,72.8638734 94.1022388,46.960149 C94.1022388,21.0566108 73.0639925,0.0575418994 47.1119403,0.0575418994 C21.1598881,0.0575418994 0.121828358,21.0566108 0.121828358,46.960149" id="path-47"></path>
        <path d="M0.121828358,46.960149 C0.121828358,72.8638734 21.1598881,93.8629423 47.1119403,93.8629423 C73.0639925,93.8629423 94.1022388,72.8638734 94.1022388,46.960149 C94.1022388,21.0566108 73.0639925,0.0575418994 47.1119403,0.0575418994 C21.1598881,0.0575418994 0.121828358,21.0566108 0.121828358,46.960149" id="path-49"></path>
        <path d="M0.121828358,46.960149 C0.121828358,72.8638734 21.1598881,93.8629423 47.1119403,93.8629423 C73.0639925,93.8629423 94.1022388,72.8638734 94.1022388,46.960149 C94.1022388,21.0566108 73.0639925,0.0575418994 47.1119403,0.0575418994 C21.1598881,0.0575418994 0.121828358,21.0566108 0.121828358,46.960149 Z" id="path-51"></path>
        <path d="M0.121828358,46.960149 C0.121828358,72.8638734 21.1598881,93.8629423 47.1119403,93.8629423 C73.0639925,93.8629423 94.1022388,72.8638734 94.1022388,46.960149 C94.1022388,21.0566108 73.0639925,0.0575418994 47.1119403,0.0575418994 C21.1598881,0.0575418994 0.121828358,21.0566108 0.121828358,46.960149" id="path-53"></path>
        <path d="M0.121828358,46.960149 C0.121828358,72.8638734 21.1598881,93.8629423 47.1119403,93.8629423 C73.0639925,93.8629423 94.1022388,72.8638734 94.1022388,46.960149 C94.1022388,21.0566108 73.0639925,0.0575418994 47.1119403,0.0575418994 C21.1598881,0.0575418994 0.121828358,21.0566108 0.121828358,46.960149" id="path-55"></path>
        <path d="M0.121828358,46.960149 C0.121828358,72.8638734 21.1598881,93.8629423 47.1119403,93.8629423 C73.0639925,93.8629423 94.1022388,72.8638734 94.1022388,46.960149 C94.1022388,21.0566108 73.0639925,0.0575418994 47.1119403,0.0575418994 C21.1598881,0.0575418994 0.121828358,21.0566108 0.121828358,46.960149" id="path-57"></path>
        <polygon id="path-59" points="0.000196850394 0.355490196 24.7152559 0.355490196 24.7152559 24.5098039 0.000196850394 24.5098039"></polygon>
        <polygon id="path-61" points="0.240551181 0.355392157 27.2877953 0.355392157 27.2877953 24.5096078 0.240551181 24.5096078"></polygon>
        <polygon id="path-63" points="0.224212598 0.355392157 27.2714567 0.355392157 27.2714567 24.5096078 0.224212598 24.5096078"></polygon>
        <polygon id="path-65" points="0.44261811 0.355392157 27.4893701 0.355392157 27.4893701 24.5096078 0.44261811 24.5096078"></polygon>
    </defs>
    <g id="Page-1" stroke="none" stroke-width="1" fill="none" fill-rule="evenodd">
        <g id="osakakuma-website-copy" transform="translate(-575.000000, -52.000000)">
            <g id="Group-2" transform="translate(575.000000, 52.000000)">
                <g id="Group-111" transform="translate(75.000000, 0.000000)">
                    <g id="Group-6" transform="translate(0.000000, 0.064060)">
                        <g id="Group-3">
                            <mask id="mask-2" fill="white">
                                <use xlink:href="#path-1"></use>
                            </mask>
                            <g id="Clip-2"></g>
                            <path d="M99.8210075,49.9397579 C99.8210075,77.4531657 77.4752985,99.7572626 49.9103731,99.7572626 C22.3456343,99.7572626 -7.46268657e-05,77.4531657 -7.46268657e-05,49.9397579 C-7.46268657e-05,22.4261639 22.3456343,0.122067039 49.9103731,0.122067039 C77.4752985,0.122067039 99.8210075,22.4261639 99.8210075,49.9397579" id="Fill-1" fill="#5C3418" mask="url(#mask-2)"></path>
                        </g>
                        <path d="M96.900709,49.9397579 C96.900709,75.8434823 75.8624627,96.842365 49.9104104,96.842365 C23.9585448,96.842365 2.92029851,75.8434823 2.92029851,49.9397579 C2.92029851,24.0360335 23.9585448,3.03696462 49.9104104,3.03696462 C75.8624627,3.03696462 96.900709,24.0360335 96.900709,49.9397579" id="Fill-4" fill="#7AC8C4"></path>
                    </g>
                    <g id="Group-91" transform="translate(2.798507, 3.043575)">
                        <g id="Group-9">
                            <mask id="mask-4" fill="white">
                                <use xlink:href="#path-3"></use>
                            </mask>
                            <g id="Clip-8"></g>
                            <path d="M43.295709,52.0765549 C44.1649254,60.454581 39.8904851,67.7610987 33.7485075,68.3959218 C27.6067164,69.0307449 21.9229478,62.7534637 21.0539179,54.3754376 C20.1847015,45.9972253 24.4591418,38.6908939 30.6011194,38.0560708 C36.7429104,37.4212477 42.4264925,43.6985289 43.295709,52.0765549" id="Fill-7" fill="#EEDA00" mask="url(#mask-4)"></path>
                        </g>
                        <g id="Group-12">
                            <mask id="mask-6" fill="white">
                                <use xlink:href="#path-5"></use>
                            </mask>
                            <g id="Clip-11"></g>
                            <path d="M23.5328918,64.9149907 C29.6308396,70.1298883 31.5041604,77.9336127 27.7172201,82.3455307 C23.9302799,86.7572626 15.9170336,86.1062384 9.81908582,80.891527 C3.72132463,75.6768156 1.84781716,67.872905 5.63475746,63.460987 C9.42169776,59.0492551 17.434944,59.7002793 23.5328918,64.9149907" id="Fill-10" fill="#EEDA00" mask="url(#mask-6)"></path>
                        </g>
                        <g id="Group-15">
                            <mask id="mask-8" fill="white">
                                <use xlink:href="#path-7"></use>
                            </mask>
                            <g id="Clip-14"></g>
                            <path d="M40.368041,103.545214 C41.1958396,111.523613 35.5503172,118.643911 27.7585261,119.449311 C19.9667351,120.254525 12.9794216,114.439814 12.1516231,106.461601 C11.3240112,98.4833892 16.9695336,91.3630912 24.7611381,90.5576909 C32.5529291,89.7524767 39.5402425,95.5670019 40.368041,103.545214" id="Fill-13" fill="#EEDA00" mask="url(#mask-8)"></path>
                        </g>
                        <g id="Group-18">
                            <mask id="mask-10" fill="white">
                                <use xlink:href="#path-9"></use>
                            </mask>
                            <g id="Clip-17"></g>
                            <path d="M50.928209,52.0765549 C50.0589925,60.454581 54.3334328,67.7610987 60.4754104,68.3959218 C66.6173881,69.0307449 72.3009701,62.7534637 73.1701866,54.3754376 C74.0392164,45.9972253 69.7647761,38.6908939 63.6229851,38.0560708 C57.4810075,37.4212477 51.7974254,43.6985289 50.928209,52.0765549" id="Fill-16" fill="#EEDA00" mask="url(#mask-10)"></path>
                        </g>
                        <g id="Group-21">
                            <mask id="mask-12" fill="white">
                                <use xlink:href="#path-11"></use>
                            </mask>
                            <g id="Clip-20"></g>
                            <path d="M70.6910261,64.9149907 C64.5930784,70.1298883 62.7197575,77.9336127 66.5066978,82.3455307 C70.2938246,86.7572626 78.3068843,86.1062384 84.4048321,80.891527 C90.5025933,75.6768156 92.3761007,67.872905 88.5891604,63.460987 C84.8022201,59.0492551 76.7889739,59.7002793 70.6910261,64.9149907" id="Fill-19" fill="#EEDA00" mask="url(#mask-12)"></path>
                        </g>
                        <g id="Group-24">
                            <mask id="mask-14" fill="white">
                                <use xlink:href="#path-13"></use>
                            </mask>
                            <g id="Clip-23"></g>
                            <path d="M53.8558955,103.545214 C53.0282836,111.523613 58.673806,118.643911 66.4654104,119.449311 C74.2572015,120.254525 81.2447015,114.439814 82.0723134,106.461601 C82.8999254,98.4833892 77.2545896,91.3630912 69.4627985,90.5576909 C61.6710075,89.7524767 54.683694,95.5670019 53.8558955,103.545214" id="Fill-22" fill="#EEDA00" mask="url(#mask-14)"></path>
                        </g>
                        <g id="Group-27">
                            <mask id="mask-16" fill="white">
                                <use xlink:href="#path-15"></use>
                            </mask>
                            <g id="Clip-26"></g>
                            <path d="M71.2980037,74.4112849 C71.0812127,41.2053259 47.1119963,43.0440596 47.1119963,43.0440596 C47.1119963,43.0440596 23.1425933,41.2053259 22.9259888,74.4112849" id="Fill-25" fill="#7AC8C4" mask="url(#mask-16)"></path>
                        </g>
                        <g id="Group-30">
                            <mask id="mask-18" fill="white">
                                <use xlink:href="#path-17"></use>
                            </mask>
                            <g id="Clip-29"></g>
                            <path d="M23.6248134,71.6727374 C23.6248134,71.6727374 20.3925373,84.9572812 20.2841418,88.2021601 C20.1757463,91.4470391 26.2442164,108.42879 26.2442164,108.42879 L59.4039179,112.322644 L67.0979478,107.779814 L76.9591418,86.1470391 L69.8070896,71.112216 L39.0313433,68.4083054 L23.6248134,71.6727374 Z" id="Fill-28" fill="#7AC8C4" mask="url(#mask-18)"></path>
                        </g>
                        <g id="Group-33">
                            <mask id="mask-20" fill="white">
                                <use xlink:href="#path-19"></use>
                            </mask>
                            <g id="Clip-32"></g>
                            <path d="M39.9391418,80.0026071 L35.0984701,74.3553073 L28.3966045,79.7636872 L33.3932463,85.5929236 C34.9333582,87.3895717 37.6663806,87.6018622 39.4663806,86.0646182 C41.2665672,84.5273743 41.4792537,81.7994413 39.9391418,80.0026071" id="Fill-31" fill="#E60012" mask="url(#mask-20)"></path>
                        </g>
                        <g id="Group-36">
                            <mask id="mask-22" fill="white">
                                <use xlink:href="#path-21"></use>
                            </mask>
                            <g id="Clip-35"></g>
                            <path d="M56.0446828,62.8274674 C56.0446828,66.5244879 52.0420709,68.9490689 47.1045709,68.9490689 C42.1670709,68.9490689 38.164459,66.5244879 38.164459,62.8274674 C38.164459,59.9097765 40.7838619,55.1040037 47.1045709,55.1040037 C52.9696828,55.1040037 56.0446828,59.9097765 56.0446828,62.8274674" id="Fill-34" fill="#FFFFFF" mask="url(#mask-22)"></path>
                        </g>
                        <g id="Group-39">
                            <mask id="mask-24" fill="white">
                                <use xlink:href="#path-23"></use>
                            </mask>
                            <g id="Clip-38"></g>
                            <path d="M35.3946642,46.0131471 C35.3946642,46.0131471 31.9907463,41.5297207 28.7398134,44.7745996 C25.4888806,48.0192924 28.7398134,52.0645438 28.7398134,52.0645438" id="Fill-37" fill="#5C3418" mask="url(#mask-24)"></path>
                        </g>
                        <g id="Group-42">
                            <mask id="mask-26" fill="white">
                                <use xlink:href="#path-25"></use>
                            </mask>
                            <g id="Clip-41"></g>
                            <path d="M58.8292537,46.0131471 C58.8292537,46.0131471 62.2331716,41.5297207 65.4841045,44.7745996 C68.7350373,48.0192924 65.4841045,52.0645438 65.4841045,52.0645438" id="Fill-40" fill="#5C3418" mask="url(#mask-26)"></path>
                        </g>
                        <g id="Group-45">
                            <mask id="mask-28" fill="white">
                                <use xlink:href="#path-27"></use>
                            </mask>
                            <g id="Clip-44"></g>
                            <path d="M33.5377425,47.0528119 C33.5377425,47.0528119 32.0812127,45.1343762 30.6903545,46.5228305 C29.2993097,47.9110987 30.6903545,49.6420112 30.6903545,49.6420112" id="Fill-43" fill="#FFFFFF" mask="url(#mask-28)"></path>
                        </g>
                        <g id="Group-48">
                            <mask id="mask-30" fill="white">
                                <use xlink:href="#path-29"></use>
                            </mask>
                            <g id="Clip-47"></g>
                            <path d="M60.6862687,47.0528119 C60.6862687,47.0528119 62.1426119,45.1343762 63.5336567,46.5228305 C64.9245149,47.9110987 63.5336567,49.6420112 63.5336567,49.6420112" id="Fill-46" fill="#FFFFFF" mask="url(#mask-30)"></path>
                        </g>
                        <g id="Group-51">
                            <mask id="mask-32" fill="white">
                                <use xlink:href="#path-31"></use>
                            </mask>
                            <g id="Clip-50"></g>
                            <polygon id="Fill-49" fill="#FFFFFF" mask="url(#mask-32)" points="58.4094776 85.3358845 46.721791 82.9451955 49.561903 69.1113035 61.2495896 71.5019926"></polygon>
                        </g>
                        <g id="Group-54">
                            <mask id="mask-34" fill="white">
                                <use xlink:href="#path-33"></use>
                            </mask>
                            <g id="Clip-53"></g>
                            <path d="M35.1063433,74.4558473 L31.2386194,69.8523091 C29.6985075,68.0556611 26.9654851,67.8431844 25.1654851,69.3804283 C23.3652985,70.9178585 23.1526119,73.6456052 24.6927239,75.4424395 L28.4246269,79.8875047 L35.1063433,74.4558473 Z" id="Fill-52" fill="#FFFFFF" mask="url(#mask-34)"></path>
                        </g>
                        <g id="Group-57">
                            <mask id="mask-36" fill="white">
                                <use xlink:href="#path-35"></use>
                            </mask>
                            <g id="Clip-56"></g>
                            <path d="M38.3269963,79.0624209 C38.3269963,75.5976164 41.1409888,72.7888641 44.6120709,72.7888641 C48.0833396,72.7888641 50.8973321,75.5976164 50.8973321,79.0624209 C50.8973321,82.5270391 48.0833396,85.3357914 44.6120709,85.3357914 C41.1409888,85.3357914 38.3269963,82.5270391 38.3269963,79.0624209" id="Fill-55" fill="#F9D3E3" mask="url(#mask-36)"></path>
                        </g>
                        <g id="Group-60">
                            <mask id="mask-38" fill="white">
                                <use xlink:href="#path-37"></use>
                            </mask>
                            <g id="Clip-59"></g>
                            <path d="M40.7110075,79.0624209 C40.7110075,76.9117691 42.4576493,75.1685661 44.6121269,75.1685661 C46.766791,75.1685661 48.5132463,76.9117691 48.5132463,79.0624209 C48.5132463,81.2128864 46.766791,82.9562756 44.6121269,82.9562756 C42.4576493,82.9562756 40.7110075,81.2128864 40.7110075,79.0624209 Z" id="Stroke-58" stroke="#DAA545" stroke-width="7.818" stroke-linecap="round" stroke-linejoin="round" mask="url(#mask-38)"></path>
                        </g>
                        <g id="Group-63">
                            <mask id="mask-40" fill="white">
                                <use xlink:href="#path-39"></use>
                            </mask>
                            <g id="Clip-62"></g>
                            <polygon id="Fill-61" fill="#E60012" mask="url(#mask-40)" points="62.8433769 83.2807263 58.5859142 79.6397579 71.6263993 64.5997207 74.539459 69.582216"></polygon>
                        </g>
                        <g id="Group-66">
                            <mask id="mask-42" fill="white">
                                <use xlink:href="#path-41"></use>
                            </mask>
                            <g id="Clip-65"></g>
                            <polygon id="Fill-64" fill="#DAA545" mask="url(#mask-42)" points="59.2680784 88.1022533 54.3589366 83.9039292 66.4886007 69.7728305 71.3977425 73.9711546"></polygon>
                        </g>
                        <g id="Group-69">
                            <mask id="mask-44" fill="white">
                                <use xlink:href="#path-43"></use>
                            </mask>
                            <g id="Clip-68"></g>
                            <polygon id="Fill-67" fill="#595757" mask="url(#mask-44)" points="56.1693097 92.7441155 50.2790112 87.7068715 62.6879664 73.2504469 68.5782649 78.2876909"></polygon>
                        </g>
                        <g id="Group-72">
                            <mask id="mask-46" fill="white">
                                <use xlink:href="#path-45"></use>
                            </mask>
                            <g id="Clip-71"></g>
                            <polygon id="Fill-70" fill="#E60012" mask="url(#mask-46)" points="27.1185821 82.9562942 27.1185821 86.2011732 28.4784701 86.2011732 32.3743657 109.02352 61.8497388 109.02352 65.7456343 86.2011732 67.1053358 86.2011732 67.1053358 82.9562942"></polygon>
                        </g>
                        <g id="Group-75">
                            <mask id="mask-48" fill="white">
                                <use xlink:href="#path-47"></use>
                            </mask>
                            <g id="Clip-74"></g>
                            <path d="M22.9259142,74.4112849 C22.9259142,74.4112849 10.8876679,81.7254376 15.3402799,96.2602607 C19.3499813,109.34797 31.3872948,105.245549 33.4372948,102.858399 C35.3878545,100.586704 35.0628545,94.7459218 28.2358022,91.3928492" id="Fill-73" fill="#5C3418" mask="url(#mask-48)"></path>
                        </g>
                        <g id="Group-78">
                            <mask id="mask-50" fill="white">
                                <use xlink:href="#path-49"></use>
                            </mask>
                            <g id="Clip-77"></g>
                            <path d="M65.9881343,91.3929236 C59.1610821,94.7459963 58.8360821,100.586778 60.7866418,102.858287 C62.8366418,105.245624 74.8739552,109.348045 78.8836567,96.2603352 C83.3364552,81.7255121 71.2980224,74.4113594 71.2980224,74.4113594" id="Fill-76" fill="#5C3418" mask="url(#mask-50)"></path>
                        </g>
                        <g id="Group-81">
                            <mask id="mask-52" fill="white">
                                <use xlink:href="#path-51"></use>
                            </mask>
                            <g id="Clip-80"></g>
                            <path d="M77.8801493,96.0389572 C77.0922761,98.6104655 75.9342537,100.642495 74.4377985,102.078808 C73.180709,103.285512 71.6808955,104.077132 69.9803358,104.431695 C66.0721269,105.246406 62.0536567,103.494264 61.0844403,102.365587 C60.3230597,101.478808 60.0450746,99.9793669 60.3590672,98.452365 C60.665597,96.9620484 61.8118657,94.1514339 66.0448881,92.0722905 C66.4210075,91.8877467 66.5756716,91.4339292 66.3907836,91.0586965 C66.205709,90.6834637 65.7510448,90.5292737 65.3752985,90.7134451 C65.3473134,90.7272253 65.321194,90.741378 65.2935821,90.7549721 L65.9697015,86.7948231 L66.8271642,86.7948231 C67.1558955,86.7948231 67.4221269,86.5290875 67.4221269,86.2011546 L67.4221269,82.9562756 C67.4221269,82.6281564 67.1558955,82.3624209 66.8271642,82.3624209 L65.7708209,82.3624209 L68.8402239,78.7443575 C69.091903,78.4477095 69.0562687,78.0039479 68.7607463,77.7512477 L68.6066418,77.6195903 L70.7443284,75.1343017 C71.3075746,75.504879 73.7879851,77.2387709 75.8529104,80.3072998 C77.2187687,82.3372812 78.1271642,84.5389572 78.5527239,86.8514339 C79.0861194,89.7497579 78.8598134,92.8408194 77.8801493,96.0389572 Z M61.7223134,121.129088 C61.4116791,121.314376 60.0555224,122.102644 58.2262313,122.870242 C55.5547761,123.991285 53.0685821,124.569311 51.0254851,124.546592 C50.6312687,124.443613 49.1687687,124.100596 46.8654104,124.004879 C46.8443284,124.003948 46.8234328,124.003948 46.8023507,124.004879 C44.4989925,124.100596 43.0366791,124.443613 42.6424627,124.546592 C40.6016045,124.56987 38.1129851,123.991099 35.4415299,122.870242 C33.6120522,122.102644 32.255709,121.31419 31.9456343,121.129088 C27.4072015,116.717728 25.0624254,108.875829 24.3385448,106.069497 C24.8144776,106.125922 25.2915299,106.152924 25.7646642,106.152924 C27.6047761,106.152924 29.3881716,105.755345 30.8366791,105.18067 L31.5098134,109.123315 C31.5585075,109.40879 31.8062687,109.617356 32.096194,109.617356 L61.5715672,109.617356 C61.8616791,109.617356 62.1092537,109.40879 62.1579478,109.123315 L62.8310821,105.18067 C64.2795896,105.755531 66.0629851,106.152924 67.903097,106.152924 C68.3764179,106.152924 68.8534701,106.125736 69.3295896,106.069497 C68.6072015,108.874525 66.2657836,116.712886 61.7223134,121.129088 Z M69.4555224,127.30581 C70.2127985,128.374339 70.3708209,129.691844 69.8889179,130.920708 C69.3993657,132.168939 68.3228731,133.079926 67.0092537,133.357765 C62.3042164,134.352924 57.8049627,133.826294 54.9739925,131.949199 C53.9185821,131.249385 53.2075746,130.409534 53.0719403,129.702644 C52.8264179,128.422756 52.3467537,126.976387 52.0058955,126.032626 C56.4855597,125.741564 61.0154104,123.291285 62.2605597,122.570615 C65.7674627,123.924246 68.1872388,125.516611 69.4555224,127.30581 Z M40.5958209,129.702644 C40.4601866,130.409534 39.7491791,131.249385 38.6937687,131.949199 C35.8629851,133.826294 31.3637313,134.352924 26.6585075,133.357765 C25.3448881,133.079926 24.2683955,132.168939 23.7790299,130.920708 C23.2971269,129.691844 23.4549627,128.374339 24.2122388,127.30581 C25.480709,125.516611 27.9002985,123.924246 31.4073881,122.570615 C32.6525373,123.290726 37.1823881,125.73933 41.6620522,126.032253 C41.321194,126.975829 40.8413433,128.42257 40.5958209,129.702644 Z M15.7877985,96.0389572 C14.8122388,92.8544134 14.5835075,89.7758287 15.1081343,86.8886778 C15.5275373,84.5819739 16.426791,82.3843948 17.7814552,80.3575791 C20.1040299,76.8821601 23.0004851,75.0836499 23.0428358,75.0577654 C23.0471269,75.0549721 23.0510448,75.0521788 23.0551493,75.0493855 C23.0667164,75.0419367 23.078097,75.0343017 23.0891045,75.0262942 C23.0991791,75.0192179 23.1088806,75.0121415 23.1183955,75.0046927 C23.1273507,74.9976164 23.1359328,74.9901676 23.1447015,74.9827188 C23.1551493,74.9734078 23.165597,74.9642831 23.1756716,74.9545996 C23.1825746,74.9478957 23.1891045,74.9410056 23.1956343,74.9341155 C23.1971269,74.9324395 23.1986194,74.9309497 23.2001119,74.9296462 C23.3788433,75.2795531 23.5995522,75.6112104 23.8616791,75.9169832 L29.4137313,82.3624209 L26.840597,82.3624209 C26.5120522,82.3624209 26.2456343,82.6281564 26.2456343,82.9562756 L26.2456343,86.2011546 C26.2456343,86.5290875 26.5120522,86.7948231 26.840597,86.7948231 L27.6982463,86.7948231 L28.3741791,90.7549721 C28.3465672,90.741378 28.3204478,90.7272253 28.2926493,90.7134451 C27.916903,90.5292737 27.4620522,90.6834637 27.2771642,91.0586965 C27.0920896,91.4339292 27.2469403,91.8877467 27.6228731,92.0722905 C31.8560821,94.1514339 33.0023507,96.9620484 33.308694,98.452365 C33.6226866,99.9793669 33.3448881,101.478808 32.5833209,102.365587 C32.1439552,102.877318 30.9536567,103.618287 29.2848134,104.120894 C27.9620522,104.519404 25.9174627,104.896685 23.6874254,104.431695 C21.9868657,104.077132 20.4872388,103.285326 19.2299627,102.078808 C17.733694,100.642495 16.5754851,98.6104655 15.7877985,96.0389572 Z M27.9719403,49.4279702 C27.514291,47.832067 27.8594403,46.446406 28.9982463,45.3099069 C29.6913433,44.6179143 30.4066418,44.3076723 31.1825746,44.3585102 C32.3467537,44.4359777 33.4029104,45.3030168 34.0006716,45.9022719 C33.0107463,46.5393296 32.0183955,47.2892365 31.0540299,48.1748976 C30.1622388,48.9937058 29.3364925,49.8877467 28.573806,50.8521788 C28.365597,50.4808566 28.1333209,49.9909125 27.9719403,49.4279702 Z M41.8825746,44.267635 C44.7126119,43.6553445 46.7564552,43.7974302 46.7756716,43.7989199 C46.8139179,43.8018994 46.853097,43.8017132 46.8911567,43.7989199 C46.9379851,43.7957542 51.6359328,43.480298 56.7396642,45.9808566 C59.7187687,47.4404469 62.258694,49.5652142 64.2891045,52.2957542 C66.8433955,55.7307635 68.6010448,60.1471508 69.5133582,65.4221974 C69.5193284,65.4564618 69.5282836,65.4892365 69.5383582,65.5216387 L66.311306,69.2205214 C66.0502985,69.0706145 65.7114925,69.1216387 65.5085075,69.3581378 L62.714291,72.6134451 C62.4331343,72.4793669 62.0864925,72.5426816 61.8736194,72.7896089 L61.2887313,73.467635 L61.6484328,71.6341155 C61.7210075,71.263352 61.4808955,70.9033892 61.11,70.8274115 L49.4223134,68.4369088 C49.0497388,68.3609311 48.6848134,68.6005959 48.6085075,68.9730354 L47.7874254,72.9719181 C46.7670896,72.3931471 45.5891045,72.0607449 44.3340672,72.0607449 C41.3146642,72.0607449 38.7348134,73.9750838 37.7484328,76.6514339 L31.5146642,69.3791806 C30.643209,68.3624209 29.4226866,67.7449162 28.078097,67.6404469 C26.733694,67.5359777 25.4318284,67.9575791 24.4131716,68.8274115 C24.1103731,69.0860708 23.8437687,69.3760149 23.6146642,69.69054 C24.3730597,60.6242458 27.204403,53.7789944 32.0618657,49.3071136 C35.4816418,46.1586965 39.2900373,44.8289013 41.8825746,44.267635 Z M62.4851866,44.3585102 C63.2620522,44.3072998 63.9764179,44.6179143 64.6697015,45.3099069 C66.6693284,47.3058101 65.7637313,49.6801117 65.0963806,50.8575791 C63.540597,48.8843948 61.723806,47.2242458 59.6704478,45.8992924 C60.2685821,45.3002235 61.3228731,44.4357914 62.4851866,44.3585102 Z M73.3178358,69.5171695 L70.5107463,72.7961266 L67.2226866,69.9843948 L71.0355597,65.6138175 L73.3178358,69.5171695 Z M63.7008582,73.4242458 L66.0631716,70.6721043 L70.0016045,74.0400745 L67.6364925,76.7899814 L63.7008582,73.4242458 Z M55.485,82.3624209 L62.4855597,74.2456611 L67.3053358,78.3674488 L63.9159701,82.3624209 L55.485,82.3624209 Z M59.6318284,74.7495717 L49.2579478,72.6663315 L49.8210075,69.9238734 L60.1635448,72.0391434 L59.6318284,74.7495717 Z M50.5210075,82.3624209 C51.0637313,81.3512477 51.3486194,80.2236872 51.3486194,79.0624209 C51.3486194,77.1080447 50.5411567,75.3389572 49.2430224,74.067635 L59.0693284,76.0408194 L53.6170896,82.3624209 L50.5210075,82.3624209 Z M38.7782836,79.0624209 C38.7782836,76.0045065 41.2704478,73.5169832 44.3340672,73.5169832 C47.3976866,73.5169832 49.8900373,76.0045065 49.8900373,79.0624209 C49.8900373,80.1737803 49.5618657,81.2456611 48.9415299,82.1624209 C48.898806,82.2255493 48.8674627,82.2931471 48.8467537,82.3624209 L39.8693284,82.3624209 C39.155709,81.4024581 38.7782836,80.2626071 38.7782836,79.0624209 Z M34.751791,75.3950093 L37.3499254,78.426108 C37.3308955,78.6357914 37.3197015,78.8477095 37.3197015,79.0624209 C37.3197015,80.2303911 37.6034701,81.3534823 38.1460075,82.3624209 L31.3295896,82.3624209 L31.3340672,82.3585102 L29.2187687,79.9030168 L34.751791,75.3950093 Z M24.9687687,74.9691248 C24.3506716,74.2478957 24.0510448,73.3249907 24.1254851,72.3706145 C24.1999254,71.4162384 24.6389179,70.550689 25.3614925,69.9335568 C26.0842537,69.3166108 27.0090672,69.0181006 27.9648507,69.0918436 C28.921194,69.1661453 29.7881716,69.6043203 30.4064552,70.3255493 L33.8547761,74.3484544 L28.3193284,78.8588827 L24.9687687,74.9691248 Z M27.4355597,85.6071136 L27.4355597,83.5501304 L39.1904104,83.5501304 C39.2301493,83.5568343 39.2706343,83.5613035 39.3111194,83.5613035 C39.3525373,83.5613035 39.3937687,83.5572067 39.4348134,83.5501304 L66.2323881,83.5501304 L66.2323881,85.6071136 L27.4355597,85.6071136 Z M58.8730597,98.1478957 C58.4607463,100.15311 58.8568284,102.098175 59.9325746,103.351061 C60.3180224,103.799851 60.9344403,104.256276 61.7116791,104.667076 L61.0695149,108.429646 L32.5984328,108.429646 L31.9560821,104.667076 C32.7333209,104.256089 33.3499254,103.799665 33.7351866,103.351061 C34.8111194,102.098175 35.2072015,100.15311 34.7948881,98.1478957 C34.4710075,96.5730354 33.3743657,93.7626071 29.7075746,91.4953818 L28.9051493,86.7948231 L64.7626119,86.7948231 L63.9601866,91.4953818 C60.2933955,93.7627933 59.1967537,96.5730354 58.8730597,98.1478957 Z M77.1122388,79.4629795 C74.8329478,76.0758287 72.1150373,74.2145624 71.5262313,73.8350466 C71.505709,73.741378 71.4650373,73.6534823 71.4060821,73.5782495 L74.4969403,69.9680074 C74.6614925,69.7760149 74.6861194,69.5011546 74.5585075,69.282905 L71.6454478,64.3002235 C71.548806,64.1352328 71.3782836,64.0264804 71.1874254,64.0084171 C71.0534701,63.9959404 70.9213806,64.0298324 70.8105597,64.1007821 C69.8855597,59.4339292 68.290597,55.4313222 66.0607463,52.1726629 C66.3637313,51.7205214 66.8566418,50.8830912 67.154403,49.8449162 C67.7665299,47.7106518 67.2782836,45.7721043 65.7424627,44.2391434 C64.733694,43.2322533 63.6014179,42.7646555 62.3766045,42.8478957 C60.5269776,42.9745251 59.0129851,44.3652142 58.3322015,45.1039479 C58.0064552,44.9249907 57.6766045,44.7518063 57.3402239,44.5884916 C52.1252985,42.0549721 47.4316418,42.2484544 46.8333209,42.2851397 C46.4592537,42.2627933 44.4167164,42.1782495 41.6271642,42.7737803 C39.8976866,43.1428678 37.664291,43.8300186 35.3377985,45.1059963 C34.6581343,44.3678212 33.1426493,42.9747114 31.2911567,42.8478957 C30.0665299,42.7648417 28.9340672,43.2322533 27.9254851,44.2391434 C26.3894776,45.7721043 25.9012313,47.7106518 26.5133582,49.8449162 C26.81,50.8789944 27.3002985,51.7140037 27.6034701,52.1674488 C23.9243657,57.5266667 22.0088806,64.8426816 21.8952612,73.9991061 C20.9984328,74.6134451 18.6004851,76.4242458 16.5555224,79.4629795 C14.2256716,82.9255493 11.9495522,88.6886778 14.3370522,96.4817877 C16.2269776,102.651061 19.7969403,104.946034 22.6948881,105.748454 C22.9032836,106.638771 23.4777239,108.900223 24.5094403,111.620335 C26.083694,115.771732 27.9760448,119.069311 30.143209,121.444358 C26.7331343,122.851434 24.3239925,124.52648 22.973806,126.431136 C21.9318284,127.901155 21.7045896,129.785885 22.3661567,131.472849 C23.0422761,133.196872 24.529403,134.455345 26.3441418,134.838957 C28.1734328,135.226294 29.8154104,135.381788 31.2734328,135.381788 C35.6691418,135.381788 38.3928358,133.96689 39.5333209,133.210466 C40.9624254,132.262793 41.8689552,131.118287 42.0859328,129.987374 C42.371194,128.50041 43.0264179,126.696685 43.3137313,125.943426 C43.876791,125.818659 45.0960075,125.59352 46.8338806,125.519218 C48.5723134,125.59352 49.7917164,125.818659 50.3542164,125.943426 C50.6413433,126.696499 51.2965672,128.50041 51.5820149,129.987374 C51.7989925,131.118287 52.7053358,132.262793 54.1346269,133.210466 C55.2751119,133.967076 57.9980597,135.381788 62.3945149,135.381788 C63.8523507,135.381788 65.4948881,135.226108 67.323806,134.838957 C69.1383582,134.455345 70.6254851,133.196872 71.3016045,131.472849 C71.9631716,129.785885 71.7359328,127.901155 70.6939552,126.431136 C69.3437687,124.52648 66.9346269,122.851434 63.5247388,121.444358 C65.691903,119.069311 67.5840672,115.771732 69.1583209,111.620335 C70.1898507,108.90041 70.7644776,106.638957 70.9728731,105.748641 C73.8708209,104.946034 77.4409701,102.651248 79.3308955,96.4817877 C81.7183955,88.6886778 79.4420896,82.9255493 77.1122388,79.4629795 Z" id="Fill-79" fill="#231815" mask="url(#mask-52)"></path>
                        </g>
                        <g id="Group-84">
                            <mask id="mask-54" fill="white">
                                <use xlink:href="#path-53"></use>
                            </mask>
                            <g id="Clip-83"></g>
                            <path d="M37.8666791,56.1046555 C39.3030597,56.1046555 40.4674254,54.9424581 40.4674254,53.5087523 C40.4674254,52.0750466 39.3030597,50.9128492 37.8666791,50.9128492 C36.4302985,50.9128492 35.2659328,52.0750466 35.2659328,53.5087523 C35.2659328,54.9424581 36.4302985,56.1046555 37.8666791,56.1046555" id="Fill-82" fill="#231815" mask="url(#mask-54)"></path>
                        </g>
                        <g id="Group-87">
                            <mask id="mask-56" fill="white">
                                <use xlink:href="#path-55"></use>
                            </mask>
                            <g id="Clip-86"></g>
                            <path d="M55.8011007,56.1046555 C57.2374813,56.1046555 58.401847,54.9424581 58.401847,53.5087523 C58.401847,52.0750466 57.2374813,50.9128492 55.8011007,50.9128492 C54.3647201,50.9128492 53.2003545,52.0750466 53.2003545,53.5087523 C53.2003545,54.9424581 54.3647201,56.1046555 55.8011007,56.1046555" id="Fill-85" fill="#231815" mask="url(#mask-56)"></path>
                        </g>
                        <g id="Group-90">
                            <mask id="mask-58" fill="white">
                                <use xlink:href="#path-57"></use>
                            </mask>
                            <g id="Clip-89"></g>
                            <path d="M44.8296082,64.3034078 C44.8413619,64.303594 44.8529291,64.303594 44.8646828,64.303594 C45.7236381,64.303594 46.4165485,63.8339479 46.8338993,63.4585289 C47.2510634,63.8339479 47.9441604,64.3037803 48.8031157,64.303594 C48.8146828,64.303594 48.8264366,64.303594 48.8381903,64.3034078 C49.7710261,64.2894413 50.6309142,63.7378585 51.3937873,62.6639292 C51.5667351,62.4203538 51.5092724,62.0827374 51.2652425,61.9097393 C51.0212127,61.7372998 50.6829664,61.7946555 50.5098321,62.0382309 C49.959459,62.812905 49.3932276,63.2110428 48.8269963,63.2216574 C48.16375,63.229851 47.6034888,62.7199814 47.3756903,62.4756611 L47.3756903,61.0736127 C48.7928545,60.8302235 49.868041,59.6507076 49.868041,58.2311546 C49.868041,56.6350652 48.5611381,56.5510801 46.8853918,56.5510801 C45.2096455,56.5510801 43.7995709,56.6350652 43.7995709,58.2311546 C43.7995709,59.6507076 44.874944,60.8302235 46.2921082,61.0736127 L46.2921082,62.4754749 C46.0661754,62.717933 45.518041,63.2218436 44.8646828,63.2218436 C44.856847,63.2218436 44.8488246,63.2218436 44.8408022,63.2216574 C44.2743843,63.2110428 43.7083396,62.812905 43.1579664,62.0382309 C42.9848321,61.7946555 42.6467724,61.7372998 42.402556,61.9097393 C42.1585261,62.0827374 42.1010634,62.4203538 42.2740112,62.6639292 C43.0368843,63.7378585 43.8967724,64.2894413 44.8296082,64.3034078" id="Fill-88" fill="#231815" mask="url(#mask-58)"></path>
                        </g>
                    </g>
                    <g id="Group-110" transform="translate(9.514925, 14.030540)" fill="#FFFFFF">
                        <path d="M3.52985075,24.846108 C3.94104478,25.1425698 4.33656716,25.3543017 4.71679104,25.4811173 C5.09682836,25.607933 5.4494403,25.6591434 5.7744403,25.6340037 C6.09925373,25.6094227 6.39216418,25.5228305 6.65242537,25.3749721 C6.9130597,25.2269274 7.13563433,25.0254376 7.32033582,24.7699441 C7.49962687,24.5222719 7.61902985,24.2518808 7.67761194,23.9582123 C7.73656716,23.6652886 7.72406716,23.3645438 7.63992537,23.0565363 C7.55615672,22.7485289 7.39272388,22.4364246 7.14962687,22.1196648 C6.90671642,21.8032775 6.57985075,21.4967598 6.16865672,21.200298 C5.74216418,20.8928492 5.33675373,20.674041 4.95261194,20.5442458 C4.56847015,20.4148231 4.2141791,20.3624953 3.8891791,20.3870764 C3.56436567,20.412216 3.27164179,20.4984358 3.01119403,20.6462942 C2.75074627,20.7941527 2.52798507,20.9958287 2.34309701,21.2511359 C2.16380597,21.4991806 2.04664179,21.7708752 1.99179104,22.0669646 C1.93675373,22.3632402 1.95522388,22.6680819 2.04682836,22.9813035 C2.1386194,23.2950838 2.30597015,23.6101676 2.5488806,23.9267412 C2.79179104,24.2433147 3.11884328,24.5496462 3.52985075,24.846108 M1.0505597,20.2487151 C1.43152985,19.7220857 1.87164179,19.2975047 2.37126866,18.9744134 C2.87052239,18.6511359 3.4011194,18.4446182 3.9619403,18.3543017 C4.52294776,18.2641713 5.10578358,18.2988082 5.71044776,18.4578399 C6.31529851,18.6174302 6.91623134,18.9120298 7.51324627,19.3425698 C8.09496269,19.7621229 8.54962687,20.2343762 8.87761194,20.7595158 C9.20578358,21.2846555 9.41567164,21.8306518 9.50708955,22.3971322 C9.59850746,22.9639851 9.56753731,23.5364246 9.41436567,24.1150093 C9.26100746,24.6939665 8.99384328,25.246108 8.6130597,25.7725512 C8.23190299,26.2991806 7.79365672,26.7250652 7.29813433,27.0511359 C6.80261194,27.3772067 6.27630597,27.5865177 5.71902985,27.6794413 C5.16212687,27.7725512 4.58302239,27.7410801 3.98227612,27.5842831 C3.38134328,27.4280447 2.78246269,27.1345624 2.18526119,26.7038361 C1.60354478,26.2844693 1.14570896,25.8125885 0.810820896,25.2885661 C0.476119403,24.7645438 0.262313433,24.2157542 0.169776119,23.6423836 C0.077238806,23.0693855 0.105783582,22.4917318 0.255037313,21.9101676 C0.404664179,21.3287896 0.669589552,20.7751583 1.0505597,20.2487151" id="Fill-92"></path>
                        <path d="M8.06768657,12.4570391 C8.53652985,12.0350652 8.98485075,11.7181192 9.41227612,11.506946 C9.83988806,11.2957728 10.2385821,11.1456797 10.6091045,11.0564804 L11.3135821,12.5629981 C10.9085448,12.6708194 10.528694,12.810298 10.174403,12.9812477 C9.82011194,13.1523836 9.51507463,13.3531285 9.25929104,13.5834823 C8.93242537,13.8777095 8.73839552,14.1616946 8.67682836,14.4356238 C8.61526119,14.7099255 8.67421642,14.9460521 8.85350746,15.1445624 C9.05873134,15.371378 9.28914179,15.4631844 9.54548507,15.4183054 C9.80182836,15.3743575 10.1518284,15.2553631 10.5952985,15.0616946 L11.4066791,14.697635 C11.7322388,14.5589013 12.0577985,14.4557356 12.3827985,14.3877654 C12.7083582,14.3203538 13.0208582,14.299311 13.3210448,14.3244507 C13.6212313,14.3505214 13.9066791,14.4276164 14.1777612,14.5562942 C14.4490299,14.6855307 14.6932463,14.8704469 14.9111567,15.1114153 C15.1675,15.3950279 15.3561194,15.7108566 15.4768284,16.0583426 C15.598097,16.4058287 15.6365299,16.773054 15.5926866,17.15946 C15.5490299,17.5460521 15.411903,17.9430726 15.1807463,18.3503352 C14.9497761,18.7575978 14.610597,19.1628119 14.1628358,19.5656052 C13.743806,19.9430726 13.3040672,20.2587151 12.8439925,20.5119739 C12.3839179,20.7656052 11.9202985,20.9548045 11.4531343,21.0795717 L10.7486567,19.5726816 C11.1885821,19.4466108 11.5926866,19.2950279 11.9609701,19.117933 C12.3290672,18.9406518 12.673097,18.7080633 12.9926866,18.4201676 C13.3691791,18.0814339 13.5848507,17.77473 13.6397015,17.5000559 C13.6945522,17.2261266 13.6258955,16.982365 13.4335448,16.7695158 C13.3693657,16.6987523 13.291194,16.6406518 13.1986567,16.5952142 C13.1061194,16.5499628 12.986903,16.5287337 12.841194,16.5311546 C12.6954851,16.5339479 12.5191791,16.5672812 12.3126493,16.6307821 C12.106306,16.6948417 11.8572388,16.793352 11.5658209,16.9270577 L10.8805597,17.2164432 C10.5484701,17.3482868 10.2247761,17.4531285 9.90910448,17.5313408 C9.59343284,17.6101117 9.28858209,17.6400931 8.99492537,17.6212849 C8.70126866,17.6032216 8.41899254,17.5292924 8.14772388,17.4004283 C7.87682836,17.2715642 7.61302239,17.0652328 7.3566791,16.7816201 C7.0941791,16.4909311 6.9055597,16.1721229 6.7913806,15.8244507 C6.67720149,15.4775233 6.64660448,15.1155121 6.69996269,14.7397207 C6.7533209,14.363743 6.89156716,13.9821788 7.11470149,13.5944693 C7.33802239,13.2075047 7.65574627,12.8279888 8.06768657,12.4570391" id="Fill-94"></path>
                        <path d="M17.9543843,12.1069646 L19.7347948,11.059851 L18.8844216,10.2965363 C18.6058769,10.0503538 18.3129664,9.78461825 18.0060634,9.49970205 C17.6989739,9.21478585 17.4234142,8.9501676 17.1791978,8.70566108 L17.1545709,8.72018622 C17.2422575,9.05687151 17.3318097,9.42521415 17.4237873,9.82540037 C17.5157649,10.225959 17.6069963,10.6155307 17.6974813,10.9943017 L17.9543843,12.1069646 Z M15.0754664,7.39932961 L17.0786381,6.22148976 L24.4745336,12.3455121 L22.4838619,13.5162756 L20.9689366,12.1630168 L18.3476679,13.7045438 L18.799347,15.6831285 L16.8334888,16.8391806 L15.0754664,7.39932961 Z" id="Fill-96"></path>
                        <polygon id="Fill-98" points="25.1761194 12.1362384 22.3649254 3.55951583 24.4380597 2.88260708 25.5893657 6.39489758 27.1660448 1.99173184 29.7438433 1.1498324 27.8658582 5.87757914 32.8277985 9.63735568 30.2908582 10.4658473 26.7712687 7.65150838 26.3210821 8.62729981 27.2492537 11.4591434"></polygon>
                        <path d="M35.5477985,5.86569832 L37.603209,5.65303538 L37.1481716,4.60573557 C36.9976119,4.26607076 36.8418284,3.90294227 36.6813806,3.51616387 C36.5209328,3.12975791 36.3808209,2.77445065 36.2606716,2.45098696 L36.2321269,2.4541527 C36.1714925,2.79642458 36.0994776,3.16867784 36.0162687,3.57072626 C35.9328731,3.97314711 35.8535821,4.36532588 35.7776493,4.74744879 L35.5477985,5.86569832 Z M34.8923881,0.389348231 L37.2047015,0.150242086 L41.3770896,8.79065177 L39.0791418,9.02845438 L38.2655224,7.16867784 L35.2395896,7.48189944 L34.8254104,9.46867784 L32.5558209,9.70331471 L34.8923881,0.389348231 Z" id="Fill-100"></path>
                        <polygon id="Fill-102" points="45.2528545 9.08962756 46.9743097 0.230782123 49.1157276 0.645121043 48.4106903 4.27324022 51.9332649 1.19074488 54.5959515 1.70620112 50.6519216 4.92594041 53.1562127 10.6197952 50.5358769 10.1123464 48.8313993 5.94493482 47.962556 6.57938547 47.3942724 9.5041527"></polygon>
                        <path d="M56.9062873,2.45955307 L58.9111381,3.31690875 L56.7801679,8.2805959 C56.5126306,8.90387337 56.4327799,9.44111732 56.5409888,9.89251397 C56.6490112,10.3439106 56.9712127,10.6841341 57.5077799,10.9135568 C58.0353918,11.1392551 58.4880037,11.1331099 58.8663619,10.8949348 C59.2441604,10.6565736 59.5463993,10.273892 59.7725187,9.74744879 L61.9713993,4.62603352 L63.9764366,5.4833892 L61.8510634,10.4338547 C60.8523694,12.7599255 59.1878172,13.4243575 56.8575933,12.4277095 C55.7495709,11.9537803 55.0010634,11.290838 54.612444,10.4388827 C54.2234515,9.58674115 54.2891231,8.55527002 54.8092724,7.34409683 L56.9062873,2.45955307 Z" id="Fill-104"></path>
                        <path d="M67.6470149,7.54275605 L69.804291,9.20718808 L68.6367537,12.3075605 C68.5649254,12.4937803 68.481903,12.7101676 68.3875,12.9569088 C68.2929104,13.2038361 68.1908582,13.457095 68.0807836,13.7163128 C67.9708955,13.9753445 67.8554104,14.2334451 67.7352612,14.4906145 C67.6145522,14.7474115 67.4962687,14.9822346 67.3804104,15.1945251 L67.4371269,15.2382868 C67.6253731,15.0574674 67.8401119,14.8703166 68.0811567,14.6762756 C68.3222015,14.4818622 68.5574627,14.29527 68.7867537,14.1161266 C69.0162313,13.9371695 69.2304104,13.7736685 69.4298507,13.6256238 C69.6289179,13.4773929 69.7847015,13.3624953 69.8970149,13.28 L72.5860075,11.3535568 L74.743097,13.0179888 L69.7248134,20.5516946 L68.1125,19.3077467 L69.8572761,16.7975047 C70.0173507,16.5591434 70.1975746,16.3030912 70.3979478,16.0289758 C70.5979478,15.7552328 70.804291,15.476648 71.0171642,15.1943389 C71.2296642,14.9116574 71.4416045,14.6345624 71.6522388,14.3626816 C71.8628731,14.0906145 72.0559701,13.8412663 72.2315299,13.6146369 L72.1973881,13.5883799 C71.951306,13.7967598 71.6934701,14.0084916 71.4246269,14.2230168 C71.1554104,14.4381006 70.8858209,14.64946 70.6160448,14.8576536 C70.3460821,15.0654749 70.0817164,15.266406 69.8235075,15.4593296 C69.5651119,15.652067 69.3231343,15.8245065 69.0968284,15.9757169 L66.3188433,17.9237616 L65.0242537,16.9250652 L66.1703358,13.7356797 C66.2658582,13.4718063 66.3748134,13.1906145 66.4968284,12.8924767 C66.6188433,12.5945251 66.748694,12.2898696 66.886194,11.9798138 C67.023694,11.6693855 67.1645522,11.3587709 67.3089552,11.0475978 C67.4529851,10.7364246 67.5990672,10.4386592 67.7466418,10.1543017 L67.7128731,10.1280447 C67.5328358,10.3757169 67.3315299,10.6397765 67.108209,10.9202235 C66.8850746,11.2004842 66.6598881,11.4794413 66.4330224,11.757095 C66.2059701,12.0341899 65.9860075,12.2989944 65.7727612,12.5509497 C65.5597015,12.802905 65.3731343,13.0239479 65.2134328,13.2148231 L63.2192164,15.5321415 L61.6296642,14.3058845 L67.6470149,7.54275605 Z" id="Fill-106"></path>
                        <path d="M74.939347,21.5343389 L76.2085634,23.1622719 L76.8578172,22.2222346 C77.0663993,21.9149721 77.2927052,21.5907635 77.5363619,21.2503538 C77.7800187,20.9095717 78.007444,20.603054 78.2190112,20.3298696 L78.2012873,20.3071508 C77.878153,20.4371322 77.5236754,20.5732588 77.1378545,20.7157169 C76.751847,20.8583613 76.3764739,20.9987709 76.0115485,21.1371322 L74.939347,21.5343389 Z M79.2464366,18.0795903 L80.6744216,19.910689 L75.5404664,28.0190689 L74.1214366,26.1993296 L75.27125,24.5254004 L73.4027799,22.1291248 L71.494944,22.8308007 L70.0932649,21.033594 L79.2464366,18.0795903 Z" id="Fill-108"></path>
                    </g>
                </g>
                <g id="Group-23" transform="translate(0.000000, 123.000000)">
                    <g id="Group-3" transform="translate(0.000000, 0.134608)">
                        <mask id="mask-60" fill="white">
                            <use xlink:href="#path-59"></use>
                        </mask>
                        <g id="Clip-2"></g>
                        <path d="M16.8299213,14.4270588 C16.8299213,16.7427451 14.8176181,18.6373529 12.3574803,18.6373529 C9.89783465,18.6373529 7.88503937,16.7427451 7.88503937,14.4270588 L7.88503937,10.4383333 C7.88503937,8.12264706 9.89783465,6.22803922 12.3574803,6.22803922 C14.8176181,6.22803922 16.8299213,8.12264706 16.8299213,10.4383333 L16.8299213,14.4270588 Z M12.3574803,0.355490196 C5.56072835,0.355490196 0.000196850394,5.59127451 0.000196850394,11.9893137 L0.000196850394,12.8755882 C0.000196850394,19.2746078 5.56072835,24.509902 12.3574803,24.509902 C19.1542323,24.509902 24.7152559,19.2746078 24.7152559,12.8755882 L24.7152559,11.9893137 C24.7152559,5.59127451 19.1542323,0.355490196 12.3574803,0.355490196 Z" id="Fill-1" fill="#5C3418" mask="url(#mask-60)"></path>
                    </g>
                    <g id="Group-6" transform="translate(54.625984, 0.134608)">
                        <mask id="mask-62" fill="white">
                            <use xlink:href="#path-61"></use>
                        </mask>
                        <g id="Clip-5"></g>
                        <path d="M11.3788386,15.6841176 L13.7641732,8.63019608 L16.1495079,15.6841176 L11.3788386,15.6841176 Z M19.1337598,24.5096078 L27.2877953,24.5096078 L17.7489173,0.355196078 L9.77942913,0.355196078 L0.240551181,24.5096078 L8.39458661,24.5096078 L9.65098425,20.7934314 L17.8778543,20.7934314 L19.1337598,24.5096078 Z" id="Fill-4" fill="#5C3418" mask="url(#mask-62)"></path>
                    </g>
                    <g id="Group-9" transform="translate(109.744094, 0.134608)">
                        <mask id="mask-64" fill="white">
                            <use xlink:href="#path-63"></use>
                        </mask>
                        <g id="Clip-8"></g>
                        <path d="M11.3625,15.6841176 L13.7478346,8.63019608 L16.1331693,15.6841176 L11.3625,15.6841176 Z M19.1174213,24.5096078 L27.2714567,24.5096078 L17.7325787,0.355196078 L9.76309055,0.355196078 L0.224212598,24.5096078 L8.37824803,24.5096078 L9.63415354,20.7934314 L17.8610236,20.7934314 L19.1174213,24.5096078 Z" id="Fill-7" fill="#5C3418" mask="url(#mask-64)"></path>
                    </g>
                    <g id="Group-12" transform="translate(222.440945, 0.134608)">
                        <mask id="mask-66" fill="white">
                            <use xlink:href="#path-65"></use>
                        </mask>
                        <g id="Clip-11"></g>
                        <path d="M11.5804134,15.6841176 L13.965748,8.63019608 L16.3515748,15.6841176 L11.5804134,15.6841176 Z M19.3353346,24.5096078 L27.4893701,24.5096078 L17.9509843,0.355196078 L9.98100394,0.355196078 L0.44261811,24.5096078 L8.59616142,24.5096078 L9.85255906,20.7934314 L18.0794291,20.7934314 L19.3353346,24.5096078 Z" id="Fill-10" fill="#5C3418" mask="url(#mask-66)"></path>
                    </g>
                    <polygon id="Fill-13" fill="#5C3418" points="99.0096949 24.6444118 108.335974 24.6444118 99.44375 9.28313725 107.869931 0.490490196 98.0771161 0.490490196 91.0825295 8.7022549 91.0825295 0.490490196 83.6204232 0.490490196 83.6204232 24.6444118 91.0825295 24.6444118 91.0825295 18.0086275 94.5195374 14.4218627"></polygon>
                    <polygon id="Fill-15" fill="#5C3418" points="154.74439 24.6444118 164.070669 24.6444118 155.178445 9.28313725 163.604626 0.490490196 153.811319 0.490490196 146.816732 8.7022549 146.816732 0.490490196 139.355118 0.490490196 139.355118 24.6444118 146.816732 24.6444118 146.816732 18.0086275 150.254232 14.4218627"></polygon>
                    <path d="M180.407776,0.490294118 L180.407776,14.7770588 C180.407776,16.6505882 178.882677,18.1697059 177.001772,18.1697059 C175.120374,18.1697059 173.595276,16.6505882 173.595276,14.7770588 L173.595276,0.490294118 L165.809843,0.490294118 L165.809843,13.4961765 C165.809843,19.6530392 170.820669,24.6442157 177.001772,24.6442157 C183.182382,24.6442157 188.193209,19.6530392 188.193209,13.4961765 L188.193209,0.490294118 L180.407776,0.490294118 Z" id="Fill-17" fill="#5C3418"></path>
                    <polygon id="Fill-19" fill="#5C3418" points="209.454724 0.490294118 205.49065 14.5285294 201.527067 0.490294118 190.801673 0.490294118 190.801673 24.6442157 198.262795 24.6442157 198.262795 10.6226471 201.993602 24.6442157 208.988681 24.6442157 212.718996 10.6226471 212.718996 24.6442157 220.180118 24.6442157 220.180118 0.490294118"></polygon>
                    <path d="M50.8096949,12.8387745 C49.9071358,11.9132843 48.6359744,11.2431863 45.9268209,10.6368137 C41.7127461,9.71230392 37.532628,9.16916667 36.3618602,8.27553922 C35.8938484,7.92455882 35.8269193,7.50985294 35.8269193,7.25495098 C35.8269193,7.03142157 35.8938484,6.52063725 36.3618602,6.17014706 C37.3653051,5.37210784 39.4051673,5.40397059 39.5390256,5.40397059 C41.6792815,5.40397059 42.8835138,5.9147549 43.4184547,6.77602941 C43.5222933,6.94906863 43.5710138,7.14318627 43.6413878,7.3402451 L51.3032972,5.94612745 L51.0931594,5.16181373 C50.8092028,4.1020098 50.1586122,3.17553922 49.2570374,2.54563725 L49.2378445,2.53240196 C48.5350886,2.02259804 47.7658957,1.63877451 46.9297736,1.38387255 C44.9568406,0.745637255 41.6458169,0.490245098 39.5724902,0.490245098 C33.5188484,0.490245098 30.2412894,2.05397059 28.7033957,4.4147549 C28.0341043,5.40397059 27.6664862,6.52063725 27.6664862,7.73338235 C27.6664862,8.30740196 27.7329232,9.58387255 28.6025098,10.8603431 C29.8067421,12.6152451 31.6458169,13.2853431 33.6527067,13.8279902 C35.4922736,14.3064216 37.3653051,14.5931863 39.2043799,14.9446569 C40.8436516,15.2314216 42.247687,15.4868137 42.8165846,15.7103431 C43.9204232,16.157402 44.1541831,16.8270098 44.1541831,17.3373039 C44.1541831,18.1353431 43.5188484,18.7730882 42.8165846,19.1245588 C42.0139272,19.507402 40.9440453,19.6029902 40.0744587,19.6029902 C37.8667815,19.6029902 36.6960138,19.1882843 35.8938484,18.6137745 C35.2742618,18.1882843 35.0124508,17.6946569 34.8963091,17.3382843 L27.2073327,19.6613235 L27.4952264,20.2221078 C27.7363681,20.6897549 28.0336122,21.1279902 28.3958169,21.5098529 C28.3972933,21.5123039 28.3997539,21.5147549 28.4022146,21.5172059 C30.1408957,23.400049 33.2845965,24.6441667 38.8367618,24.6441667 C45.2914862,24.6441667 48.8362697,23.3363235 50.8096949,20.975049 C51.8131398,19.7941667 52.3815453,18.2309314 52.3815453,16.6995588 C52.3815453,14.5931863 51.4120571,13.4127941 50.8096949,12.8387745" id="Fill-21" fill="#5C3418"></path>
                </g>
            </g>
        </g>
    </g>
</svg>