<?xml version="1.0" encoding="UTF-8"?>
<svg width="250px" height="25px" viewBox="0 0 250 25" version="1.1" xmlns="http://www.w3.org/2000/svg" xmlns:xlink="http://www.w3.org/1999/xlink">
    <!-- Generator: Sketch 52.5 (67469) - http://www.bohemiancoding.com/sketch -->
    <title>Group 23 Copy</title>
    <desc>Created with Sketch.</desc>
    <defs>
        <polygon id="path-1" points="0.000196850394 0.355490196 24.7152559 0.355490196 24.7152559 24.5098039 0.000196850394 24.5098039"></polygon>
        <polygon id="path-3" points="0.240551181 0.355392157 27.2877953 0.355392157 27.2877953 24.5096078 0.240551181 24.5096078"></polygon>
        <polygon id="path-5" points="0.224212598 0.355392157 27.2714567 0.355392157 27.2714567 24.5096078 0.224212598 24.5096078"></polygon>
        <polygon id="path-7" points="0.44261811 0.355392157 27.4893701 0.355392157 27.4893701 24.5096078 0.44261811 24.5096078"></polygon>
    </defs>
    <g id="Page-1" stroke="none" stroke-width="1" fill="none" fill-rule="evenodd">
        <g id="osakakuma-website-copy" transform="translate(-145.000000, -3132.000000)">
            <g id="Group-23-Copy" transform="translate(145.000000, 3132.000000)">
                <g id="Group-3" transform="translate(0.000000, 0.134608)">
                    <mask id="mask-2" fill="white">
                        <use xlink:href="#path-1"></use>
                    </mask>
                    <g id="Clip-2"></g>
                    <path d="M16.8299213,14.4270588 C16.8299213,16.7427451 14.8176181,18.6373529 12.3574803,18.6373529 C9.89783465,18.6373529 7.88503937,16.7427451 7.88503937,14.4270588 L7.88503937,10.4383333 C7.88503937,8.12264706 9.89783465,6.22803922 12.3574803,6.22803922 C14.8176181,6.22803922 16.8299213,8.12264706 16.8299213,10.4383333 L16.8299213,14.4270588 Z M12.3574803,0.355490196 C5.56072835,0.355490196 0.000196850394,5.59127451 0.000196850394,11.9893137 L0.000196850394,12.8755882 C0.000196850394,19.2746078 5.56072835,24.509902 12.3574803,24.509902 C19.1542323,24.509902 24.7152559,19.2746078 24.7152559,12.8755882 L24.7152559,11.9893137 C24.7152559,5.59127451 19.1542323,0.355490196 12.3574803,0.355490196 Z" id="Fill-1" fill="#5C3418" mask="url(#mask-2)"></path>
                </g>
                <g id="Group-6" transform="translate(54.625984, 0.134608)">
                    <mask id="mask-4" fill="white">
                        <use xlink:href="#path-3"></use>
                    </mask>
                    <g id="Clip-5"></g>
                    <path d="M11.3788386,15.6841176 L13.7641732,8.63019608 L16.1495079,15.6841176 L11.3788386,15.6841176 Z M19.1337598,24.5096078 L27.2877953,24.5096078 L17.7489173,0.355196078 L9.77942913,0.355196078 L0.240551181,24.5096078 L8.39458661,24.5096078 L9.65098425,20.7934314 L17.8778543,20.7934314 L19.1337598,24.5096078 Z" id="Fill-4" fill="#5C3418" mask="url(#mask-4)"></path>
                </g>
                <g id="Group-9" transform="translate(109.744094, 0.134608)">
                    <mask id="mask-6" fill="white">
                        <use xlink:href="#path-5"></use>
                    </mask>
                    <g id="Clip-8"></g>
                    <path d="M11.3625,15.6841176 L13.7478346,8.63019608 L16.1331693,15.6841176 L11.3625,15.6841176 Z M19.1174213,24.5096078 L27.2714567,24.5096078 L17.7325787,0.355196078 L9.76309055,0.355196078 L0.224212598,24.5096078 L8.37824803,24.5096078 L9.63415354,20.7934314 L17.8610236,20.7934314 L19.1174213,24.5096078 Z" id="Fill-7" fill="#5C3418" mask="url(#mask-6)"></path>
                </g>
                <g id="Group-12" transform="translate(222.440945, 0.134608)">
                    <mask id="mask-8" fill="white">
                        <use xlink:href="#path-7"></use>
                    </mask>
                    <g id="Clip-11"></g>
                    <path d="M11.5804134,15.6841176 L13.965748,8.63019608 L16.3515748,15.6841176 L11.5804134,15.6841176 Z M19.3353346,24.5096078 L27.4893701,24.5096078 L17.9509843,0.355196078 L9.98100394,0.355196078 L0.44261811,24.5096078 L8.59616142,24.5096078 L9.85255906,20.7934314 L18.0794291,20.7934314 L19.3353346,24.5096078 Z" id="Fill-10" fill="#5C3418" mask="url(#mask-8)"></path>
                </g>
                <polygon id="Fill-13" fill="#5C3418" points="99.0096949 24.6444118 108.335974 24.6444118 99.44375 9.28313725 107.869931 0.490490196 98.0771161 0.490490196 91.0825295 8.7022549 91.0825295 0.490490196 83.6204232 0.490490196 83.6204232 24.6444118 91.0825295 24.6444118 91.0825295 18.0086275 94.5195374 14.4218627"></polygon>
                <polygon id="Fill-15" fill="#5C3418" points="154.74439 24.6444118 164.070669 24.6444118 155.178445 9.28313725 163.604626 0.490490196 153.811319 0.490490196 146.816732 8.7022549 146.816732 0.490490196 139.355118 0.490490196 139.355118 24.6444118 146.816732 24.6444118 146.816732 18.0086275 150.254232 14.4218627"></polygon>
                <path d="M180.407776,0.490294118 L180.407776,14.7770588 C180.407776,16.6505882 178.882677,18.1697059 177.001772,18.1697059 C175.120374,18.1697059 173.595276,16.6505882 173.595276,14.7770588 L173.595276,0.490294118 L165.809843,0.490294118 L165.809843,13.4961765 C165.809843,19.6530392 170.820669,24.6442157 177.001772,24.6442157 C183.182382,24.6442157 188.193209,19.6530392 188.193209,13.4961765 L188.193209,0.490294118 L180.407776,0.490294118 Z" id="Fill-17" fill="#5C3418"></path>
                <polygon id="Fill-19" fill="#5C3418" points="209.454724 0.490294118 205.49065 14.5285294 201.527067 0.490294118 190.801673 0.490294118 190.801673 24.6442157 198.262795 24.6442157 198.262795 10.6226471 201.993602 24.6442157 208.988681 24.6442157 212.718996 10.6226471 212.718996 24.6442157 220.180118 24.6442157 220.180118 0.490294118"></polygon>
                <path d="M50.8096949,12.8387745 C49.9071358,11.9132843 48.6359744,11.2431863 45.9268209,10.6368137 C41.7127461,9.71230392 37.532628,9.16916667 36.3618602,8.27553922 C35.8938484,7.92455882 35.8269193,7.50985294 35.8269193,7.25495098 C35.8269193,7.03142157 35.8938484,6.52063725 36.3618602,6.17014706 C37.3653051,5.37210784 39.4051673,5.40397059 39.5390256,5.40397059 C41.6792815,5.40397059 42.8835138,5.9147549 43.4184547,6.77602941 C43.5222933,6.94906863 43.5710138,7.14318627 43.6413878,7.3402451 L51.3032972,5.94612745 L51.0931594,5.16181373 C50.8092028,4.1020098 50.1586122,3.17553922 49.2570374,2.54563725 L49.2378445,2.53240196 C48.5350886,2.02259804 47.7658957,1.63877451 46.9297736,1.38387255 C44.9568406,0.745637255 41.6458169,0.490245098 39.5724902,0.490245098 C33.5188484,0.490245098 30.2412894,2.05397059 28.7033957,4.4147549 C28.0341043,5.40397059 27.6664862,6.52063725 27.6664862,7.73338235 C27.6664862,8.30740196 27.7329232,9.58387255 28.6025098,10.8603431 C29.8067421,12.6152451 31.6458169,13.2853431 33.6527067,13.8279902 C35.4922736,14.3064216 37.3653051,14.5931863 39.2043799,14.9446569 C40.8436516,15.2314216 42.247687,15.4868137 42.8165846,15.7103431 C43.9204232,16.157402 44.1541831,16.8270098 44.1541831,17.3373039 C44.1541831,18.1353431 43.5188484,18.7730882 42.8165846,19.1245588 C42.0139272,19.507402 40.9440453,19.6029902 40.0744587,19.6029902 C37.8667815,19.6029902 36.6960138,19.1882843 35.8938484,18.6137745 C35.2742618,18.1882843 35.0124508,17.6946569 34.8963091,17.3382843 L27.2073327,19.6613235 L27.4952264,20.2221078 C27.7363681,20.6897549 28.0336122,21.1279902 28.3958169,21.5098529 C28.3972933,21.5123039 28.3997539,21.5147549 28.4022146,21.5172059 C30.1408957,23.400049 33.2845965,24.6441667 38.8367618,24.6441667 C45.2914862,24.6441667 48.8362697,23.3363235 50.8096949,20.975049 C51.8131398,19.7941667 52.3815453,18.2309314 52.3815453,16.6995588 C52.3815453,14.5931863 51.4120571,13.4127941 50.8096949,12.8387745" id="Fill-21" fill="#5C3418"></path>
            </g>
        </g>
    </g>
</svg>