<?xml version="1.0" encoding="UTF-8"?>
<svg width="42px" height="53px" viewBox="0 0 42 53" version="1.1" xmlns="http://www.w3.org/2000/svg" xmlns:xlink="http://www.w3.org/1999/xlink">
    <!-- Generator: Sketch 52.5 (67469) - http://www.bohemiancoding.com/sketch -->
    <title>Group 3</title>
    <desc>Created with Sketch.</desc>
    <g id="Page-1" stroke="none" stroke-width="1" fill="none" fill-rule="evenodd">
        <g id="osakakuma-website-copy" transform="translate(-741.000000, -866.000000)" fill="#5C3418">
            <g id="Group-3" transform="translate(741.000000, 866.000000)">
                <path d="M22.5559541,0 L32.7615955,0 C32.8138179,0.90578012 32.8311173,1.80106816 32.92475,2.68835193 C33.0657397,4.0249563 33.4124834,5.30910026 34.1333256,6.46279632 C35.237997,8.23054942 36.8773263,9.13632954 38.9203792,9.27748587 C39.8460024,9.34141183 40.7835188,9.23540938 41.780718,9.20447398 C41.7859078,9.28289416 41.8066671,9.45055109 41.8067752,9.61820803 C41.808397,12.7001752 41.7988824,15.7822505 41.817371,18.8642177 C41.8199659,19.2962317 41.7025466,19.4387942 41.26563,19.4952567 C38.563472,19.8447403 35.9576498,19.4558844 33.4105373,18.5496716 C33.2439229,18.4903968 33.0783898,18.4277688 32.8131692,18.3302033 L32.8131692,18.9952064 C32.8131692,24.582509 32.815656,30.1698116 32.8125205,35.7571142 C32.8078713,43.945479 26.7058511,50.9131931 18.5972148,51.9939855 C9.3495247,53.2266425 0.918904342,46.5070607 0.0689658151,37.2262217 C-0.725722923,28.5497048 5.43468255,20.7175299 14.0413238,19.484332 C16.1102175,19.1878496 18.1714347,19.2735169 20.2126494,19.7556117 C20.4771132,19.8180234 20.6165892,19.8970926 20.6158323,20.2043915 C20.6069664,23.8439532 20.6101019,27.4835148 20.6101019,31.1936006 C20.4655443,31.1040393 20.3649918,31.0525524 20.2765489,30.9852733 C18.2797718,29.4671668 16.1010272,29.1392082 13.8294068,30.1996654 C11.5367027,31.2699656 10.3618608,33.1724933 10.2736342,35.6971904 C10.1676757,38.7344851 12.6760809,41.5533931 15.6891947,41.8447917 C18.9467698,42.1597704 21.8779278,40.0209005 22.4272902,36.9135144 C22.5018936,36.4905863 22.5338974,36.0547864 22.5342218,35.6248275 C22.5402765,27.0275961 22.5373573,18.4303648 22.5397359,9.8331334 C22.5404928,6.75127442 22.5503318,3.66941543 22.5559541,0.587556438 C22.5562784,0.410813577 22.5559541,0.234178882 22.5559541,0" id="Fill-1"></path>
            </g>
        </g>
    </g>
</svg>