<?xml version="1.0" encoding="UTF-8"?>
<svg width="49px" height="49px" viewBox="0 0 49 49" version="1.1" xmlns="http://www.w3.org/2000/svg" xmlns:xlink="http://www.w3.org/1999/xlink">
    <!-- Generator: Sketch 52.5 (67469) - http://www.bohemiancoding.com/sketch -->
    <title>Fill 1</title>
    <desc>Created with Sketch.</desc>
    <g id="Page-1" stroke="none" stroke-width="1" fill="none" fill-rule="evenodd">
        <g id="osakakuma-website-copy" transform="translate(-214.000000, -872.000000)" fill="#5C3418">
            <path d="M214,915 L214,878 C214,874.686292 216.686292,872 220,872 L257,872 C260.313708,872 263,874.686292 263,878 L263,915 C263,918.313708 260.313708,921 257,921 L247.878906,921 C247.881299,914.955008 247.883787,908.910111 247.886275,902.865119 C247.886658,902.127822 247.88685,902.126961 248.603187,902.126674 C250.230141,902.126195 251.856998,902.127057 253.483855,902.126291 C254.25082,902.125908 254.226895,902.121793 254.321928,901.337602 C254.513238,899.758691 254.735365,898.183514 254.940648,896.606326 C255.038361,895.856205 255.1266,895.104936 255.227758,894.284281 L254.582049,894.284281 C252.524527,894.284186 250.46691,894.271744 248.40958,894.294234 C247.978342,894.298924 247.871633,894.163217 247.877566,893.751311 C247.899674,892.236426 247.883117,890.720967 247.889529,889.205795 C247.890773,888.920791 247.892496,888.626504 247.959393,888.352602 C248.269088,887.084057 249.308232,886.30733 250.714686,886.29441 C252.118172,886.28149 253.521945,886.283404 254.925336,886.297186 C255.247568,886.300248 255.374758,886.216221 255.372461,885.871115 C255.35935,883.813594 255.361072,881.756072 255.371217,879.698551 C255.372748,879.373734 255.273982,879.246449 254.934811,879.248555 C252.749813,879.261857 250.562996,879.207689 248.380008,879.275639 C245.961303,879.350957 243.906557,880.30952 242.267449,882.110939 C240.711221,883.821346 240.045318,885.866426 240.033164,888.147127 C240.023307,889.99726 240.017564,891.84768 240.040629,893.697525 C240.046275,894.146373 239.937939,894.30323 239.462104,894.295287 C237.755908,894.266959 236.049043,894.283898 234.342369,894.284473 C233.684027,894.284664 233.683453,894.285717 233.683357,894.9231 C233.68307,897.124176 233.683262,899.325252 233.683262,901.526328 L233.683262,902.08533 C233.928549,902.100834 234.131248,902.124473 234.333947,902.12476 C236.008656,902.127822 237.683461,902.125908 239.35817,902.126865 C240.029527,902.127248 240.030771,902.128779 240.030771,902.817172 C240.03125,908.878051 240.031154,914.939025 240.03125,921 L220,921 C216.686292,921 214,918.313708 214,915 Z" id="Fill-1"></path>
        </g>
    </g>
</svg>