<?xml version="1.0" encoding="UTF-8"?>
<svg width="66px" height="46px" viewBox="0 0 66 46" version="1.1" xmlns="http://www.w3.org/2000/svg" xmlns:xlink="http://www.w3.org/1999/xlink">
    <!-- Generator: Sketch 52.5 (67469) - http://www.bohemiancoding.com/sketch -->
    <title>Group 3</title>
    <desc>Created with Sketch.</desc>
    <defs>
        <polygon id="path-1" points="4.26142314e-05 4.9218953e-05 65.8832687 4.9218953e-05 65.8832687 45.6168321 4.26142314e-05 45.6168321"></polygon>
    </defs>
    <g id="Page-1" stroke="none" stroke-width="1" fill="none" fill-rule="evenodd">
        <g id="osakakuma-website-copy" transform="translate(-906.000000, -873.000000)">
            <g id="Group-3" transform="translate(906.000000, 873.000000)">
                <mask id="mask-2" fill="white">
                    <use xlink:href="#path-1"></use>
                </mask>
                <g id="Clip-2"></g>
                <path d="M26.6975418,12.6001107 L26.6975418,32.7953093 C32.2405567,29.398016 37.632609,26.0932846 43.1763627,22.6955003 C37.6020716,19.2805294 32.224303,15.98611 26.6975418,12.6001107 M34.7613627,45.6169794 C26.1843179,45.3299637 19.5439299,45.1698831 12.9111761,44.8489854 C10.8474448,44.7490578 8.71869851,44.4701443 6.77169851,43.8204921 C3.30546716,42.6638361 1.33507164,40.0932167 0.821108955,36.428304 C-0.211249254,29.0668063 -0.12751791,21.6802652 0.29778806,14.2895503 C0.414519403,12.2610443 0.788601493,10.2482518 1.00334776,8.2239197 C1.41880299,4.30685552 5.30073582,1.39864284 9.02530299,0.967505522 C17.5976687,-0.0248959701 26.2050045,-0.0519034328 34.8116015,0.0286279104 C40.6727955,0.083379403 46.5337433,0.303612985 52.3914896,0.533667463 C54.2232358,0.605605522 56.0650791,0.845726418 57.8660418,1.19387716 C61.8250567,1.95990701 64.1256985,4.44140179 64.8253478,8.41591821 C65.7717582,13.7916309 66.0175343,19.2196399 65.8197806,24.6505951 C65.6702955,28.7599033 65.240803,32.8635645 64.8167284,36.9574048 C64.3493104,41.4713339 60.4131985,44.1546481 56.8878627,44.3851936 C48.8787134,44.9093839 40.860206,45.2850331 34.7613627,45.6169794" id="Fill-1" fill="#5C3418" mask="url(#mask-2)"></path>
            </g>
        </g>
    </g>
</svg>