<?xml version="1.0" encoding="UTF-8"?>
<svg width="111px" height="40px" viewBox="0 0 111 40" version="1.1" xmlns="http://www.w3.org/2000/svg" xmlns:xlink="http://www.w3.org/1999/xlink">
    <!-- Generator: Sketch 52.5 (67469) - http://www.bohemiancoding.com/sketch -->
    <title>Group 19</title>
    <desc>Created with Sketch.</desc>
    <defs>
        <polygon id="path-1" points="0.186477412 0.0904699029 18.244054 0.0904699029 18.244054 29.5988968 0.186477412 29.5988968"></polygon>
        <polygon id="path-3" points="0 0.210828464 9.84167111 0.210828464 9.84167111 25.8458667 0 25.8458667"></polygon>
    </defs>
    <g id="Page-1" stroke="none" stroke-width="1" fill="none" fill-rule="evenodd">
        <g id="osakakuma-website-copy" transform="translate(-1075.000000, -877.000000)">
            <g id="Group-19" transform="translate(1075.000000, 877.000000)">
                <path d="M91.3867038,9.99175277 L91.3867038,15.6985639 L95.0871902,15.6985639 C95.0871902,14.7128633 95.0868986,13.8455053 95.0874818,12.9778544 C95.0889397,9.83650126 95.0428695,9.79051167 91.944503,9.91236945 C91.8007524,9.918228 91.6584596,9.95220758 91.3867038,9.99175277 M95.8488064,33.3784886 L103.34571,33.3784886 C103.34571,31.739267 103.350376,30.2057922 103.343961,28.6723174 C103.339295,27.5506984 103.33463,26.4287866 103.303139,25.3074606 C103.273981,24.2743057 102.666029,23.5457954 101.713134,23.5223612 C98.2832372,23.4394627 94.8501328,23.4901392 91.2974792,23.4901392 L91.2974792,39.6664676 L83.8093228,39.6664676 L83.8093228,23.5258763 L76.4666667,23.5258763 L76.4666667,15.8368256 L83.6434118,15.8368256 L83.6434118,9.95191465 L79.1547751,9.95191465 L79.1547751,2.3091465 L83.6416623,2.3091465 C83.6991043,1.45116222 83.7437166,0.786217075 83.7964932,0 L91.1581023,0 C91.2193348,0.681056148 91.2823169,1.38408185 91.3636687,2.28981329 C92.4066629,2.28981329 93.4117513,2.27868205 94.4165481,2.29157086 C98.8591146,2.34927755 102.483498,5.85122432 102.649409,10.301377 C102.716181,12.0911633 102.660489,13.8853434 102.660489,15.5658678 C102.966652,15.7155537 103.049753,15.7843916 103.139852,15.7958158 C108.890171,16.5246191 110.980825,18.9052399 110.99278,24.7561713 C110.99832,27.3907601 111.007942,30.0256418 110.987823,32.6599377 C110.952249,37.2629985 108.406142,39.733548 103.836737,39.8190828 C101.257681,39.8677087 98.954754,39.3688534 97.4606801,37.1018884 C96.7958696,36.0930466 96.4727951,34.856893 95.8488064,33.3784886" id="Fill-1" fill="#5C3418"></path>
                <path d="M76.4666667,32.5837048 L76.4666667,39.8222222 L51.8,39.8222222 C52.6687938,37.954426 53.5780359,36.2177803 54.2909356,34.3975152 C54.8462558,32.9797974 55.6378048,32.4103043 57.1296134,32.5511372 C58.7416431,32.7031194 60.3772676,32.5854653 62.0831147,32.5854653 L62.0831147,10.2270696 L57.61752,10.2270696 L57.61752,2.48888889 L74.0274149,2.48888889 L74.0274149,10.184233 C72.9018873,10.184233 71.7884379,10.2223752 70.6789211,10.1719101 C69.8140597,10.1325942 69.4123865,10.3852132 69.4171616,11.3921684 C69.4477787,18.0424151 69.4452507,24.6929551 69.4149145,31.3432018 C69.4101394,32.3111345 69.7368149,32.6247811 70.6421244,32.5998419 C72.5510552,32.5470296 74.4622332,32.5837048 76.4666667,32.5837048" id="Fill-3" fill="#5C3418"></path>
                <path d="M9.91826964,33.5145638 C11.0324972,33.5145638 12.1800501,33.4610612 13.3203584,33.5306439 C14.3375076,33.5923327 14.6516357,33.2043656 14.6438115,32.1898625 C14.603821,27.1755273 14.6275835,22.1608998 14.6275835,17.1462722 C14.6278732,11.9854627 14.6270039,6.82494551 14.6267141,1.66442832 C14.6267141,1.14109674 14.6267141,0.618057522 14.6267141,0 L22.1976656,0 L22.1976656,1.41591891 C22.1967962,12.0778497 22.2136038,22.7400729 22.1681074,33.4020037 C22.1634708,34.4942756 21.9713426,35.6651935 21.5473856,36.6618624 C20.1485881,39.9483263 17.6940999,40.161752 13.9141301,39.5536349 C11.1869532,39.1147965 9.54937194,36.4054592 9.91826964,33.5145638" id="Fill-5" fill="#5C3418"></path>
                <g id="Group-9" transform="translate(38.233333, 0.000000)">
                    <mask id="mask-2" fill="white">
                        <use xlink:href="#path-1"></use>
                    </mask>
                    <g id="Clip-8"></g>
                    <path d="M14.6101254,0.128774628 C13.5133397,2.20842252 12.5536889,4.03231896 11.589927,5.85389566 C10.8889825,7.17846783 10.1448714,8.48303223 9.50735556,9.83660117 C9.36933968,10.1294685 9.60337937,10.5931267 9.66622063,10.9784937 C9.99510952,10.8822245 10.3292841,10.8013235 10.651419,10.6862063 C10.9553476,10.5774685 11.2445937,10.3260665 11.5432365,10.3214271 C13.6865937,10.2895306 15.8308317,10.304319 18.244054,10.304319 C16.7807921,13.1413623 15.4176651,15.7858672 14.0530698,18.4292122 C13.4093873,19.675783 12.7533714,20.9159746 12.1193794,22.166895 C11.6574667,23.0771034 11.9749032,23.5581597 12.9921095,23.5714983 C14.1590778,23.5868665 15.3263397,23.5749779 16.8213159,23.5749779 C15.6813635,25.6096808 14.7023317,27.4147293 13.6481254,29.1757028 C13.4998317,29.4233351 12.9850619,29.5662892 12.637673,29.5703487 C10.0464984,29.6005054 7.45444286,29.6161636 4.86385556,29.5688989 C3.31543492,29.540772 2.71550635,28.8926944 2.91665714,27.3526762 C3.03852222,26.4201403 3.3800381,25.4852847 3.78322063,24.6243707 C4.90379206,22.230108 6.10805397,19.8738309 7.41568095,17.2267164 C5.72660159,17.2267164 4.28683175,17.2510737 2.84794286,17.221207 C0.540728571,17.1730724 -0.361660317,16.0767047 0.51811746,13.9486322 C1.73324444,11.0095203 3.23791111,8.18697528 4.63333968,5.32122511 C5.24706984,4.06044583 5.99617302,2.85389049 6.50066508,1.5536756 C6.96727619,0.352339676 7.70022857,0.024676246 8.94060952,0.100647767 C10.7268873,0.210545502 12.5254984,0.128774628 14.6101254,0.128774628" id="Fill-7" fill="#5C3418" mask="url(#mask-2)"></path>
                </g>
                <g id="Group-12" transform="translate(0.000000, 9.955556)">
                    <mask id="mask-4" fill="white">
                        <use xlink:href="#path-3"></use>
                    </mask>
                    <g id="Clip-11"></g>
                    <path d="M1.91963475,0.210828464 L9.84167111,0.210828464 C9.73224081,2.60511161 9.78187313,4.94624719 9.48736808,7.24480599 C8.89985293,11.8313528 8.23400242,16.4152569 7.37201455,20.9580524 C7.01681455,22.8296689 6.20236606,24.6769139 4.2119903,25.8458667 C2.8031499,23.3165124 1.43975596,20.8890487 0.10775596,18.4451416 C-0.0175208081,18.2155206 -0.0279854545,17.8593438 0.0470610101,17.6006532 C1.64635798,12.0920989 2.0129196,6.46286142 1.80033778,0.773429213 C1.79525495,0.636596255 1.85654788,0.497414232 1.91963475,0.210828464" id="Fill-10" fill="#5C3418" mask="url(#mask-4)"></path>
                </g>
                <path d="M25.9,11.2 L34.0888907,11.2 C34.0888907,13.3983741 33.9013291,15.5824527 34.1320359,17.72536 C34.4921781,21.0685241 35.1426512,24.383097 35.6523034,27.7125374 C35.7203169,28.1582735 35.8617372,28.7049364 35.6702806,29.0571795 C34.3933038,31.4110895 33.0348306,33.724972 31.6820502,36.0888889 C30.0982634,35.4312923 29.3752824,34.1758545 29.0229303,32.8763864 C28.1540348,29.6707458 27.2644656,26.4416604 26.8144376,23.1679728 C26.2790182,19.2727134 26.1939264,15.3214154 25.9,11.2" id="Fill-13" fill="#5C3418"></path>
                <path d="M50.5666667,32.3563305 C49.1942562,34.9272246 48.0455803,37.1328705 46.8248978,39.2983108 C46.6697409,39.5738042 46.1396927,39.7776637 45.7802314,39.7827602 C42.9765479,39.8215501 40.1711499,39.8459 37.3683237,39.7867241 C35.6635972,39.7507656 35.4032878,39.2130863 36.1933597,37.7042432 C37.0894411,35.9926733 37.9843797,34.2805371 38.8847473,32.5712323 C38.9496103,32.4483504 39.053334,32.3455712 39.0450475,32.3563305 L50.5666667,32.3563305 Z" id="Fill-15" fill="#5C3418"></path>
                <path d="M103.612598,9.90623208 C103.612598,8.46234635 103.579836,7.22787461 103.619977,5.99548512 C103.684322,4.03520351 105.17074,2.56573595 107.105503,2.49196511 C109.139734,2.41432725 110.800295,3.81448591 110.980932,5.75959691 C111.170719,7.80257326 109.926626,9.65309101 108.014,9.87470099 C106.622328,10.035926 105.197894,9.90623208 103.612598,9.90623208" id="Fill-17" fill="#5C3418"></path>
            </g>
        </g>
    </g>
</svg>