<?xml version="1.0" encoding="UTF-8"?>
<svg width="54px" height="48px" viewBox="0 0 54 48" version="1.1" xmlns="http://www.w3.org/2000/svg" xmlns:xlink="http://www.w3.org/1999/xlink">
    <!-- Generator: Sketch 52.5 (67469) - http://www.bohemiancoding.com/sketch -->
    <title>Group 7</title>
    <desc>Created with Sketch.</desc>
    <defs>
        <polygon id="path-1" points="2.61122556e-05 0.102237337 39.813861 0.102237337 39.813861 36.3057652 2.61122556e-05 36.3057652"></polygon>
        <polygon id="path-3" points="0.0449383867 0.0065593821 33.3260804 0.0065593821 33.3260804 31.1351351 0.0449383867 31.1351351"></polygon>
    </defs>
    <g id="Page-1" stroke="none" stroke-width="1" fill="none" fill-rule="evenodd">
        <g id="osakakuma-website-copy" transform="translate(-564.000000, -873.000000)">
            <g id="Group-7" transform="translate(564.000000, 873.000000)">
                <g id="Group-3">
                    <mask id="mask-2" fill="white">
                        <use xlink:href="#path-1"></use>
                    </mask>
                    <g id="Clip-2"></g>
                    <path d="M26.8609909,7.80283773 C25.4357182,7.79405735 24.2347442,9.01669561 24.2466662,10.4643763 C24.2583545,11.8834305 25.4585104,13.1073919 26.8362117,13.1052268 C28.2159,13.1031821 29.4133675,11.8775369 29.4207312,10.4598057 C29.4280948,9.03389554 28.2503805,7.81149783 26.8609909,7.80283773 M15.9792896,10.4430869 C15.973913,9.01296696 14.7964325,7.80620555 13.4030688,7.80283773 C11.9797831,7.79934963 10.7804455,9.03582001 10.8052247,10.4812154 C10.8296532,11.9037577 12.0390429,13.1217051 13.4109,13.1052268 C14.7971338,13.0886283 15.9846662,11.8578111 15.9792896,10.4430869 M39.813861,14.0543502 C39.0370558,13.9821826 38.381926,13.8751341 37.7255104,13.867316 C31.053939,13.78721 25.1792766,15.8009247 20.6127701,21.0092555 C17.7425883,24.2831356 16.4242636,28.1695977 16.7625234,32.6017667 C16.8061208,33.1726118 16.9147052,33.7381647 17.0137052,34.4549086 C16.1724974,34.2780982 15.4190688,34.141461 14.6769779,33.9567121 C14.0551597,33.802033 13.4300688,33.6336421 12.8373545,33.3913997 C12.3963545,33.2112215 12.0333156,33.2629415 11.6202506,33.4496149 C9.68045844,34.3260896 7.73131558,35.1811545 5.78497792,36.0422335 C5.61058831,36.1193325 5.43140649,36.1847643 5.12902987,36.3057652 C6.01383506,34.4705449 6.84674416,32.7428542 7.70045844,30.9722238 C7.45512078,30.7835057 7.22638052,30.6050113 6.99495195,30.4302456 C3.63362727,27.8904296 1.20748442,24.6738025 0.334250649,20.4038902 C-0.640087013,15.6396303 0.545224675,11.3828284 3.50657532,7.6652383 C6.70438052,3.65079907 10.9322766,1.40145738 15.8473286,0.517886236 C21.6344455,-0.522529014 27.1266662,0.35226175 32.1624584,3.56888892 C35.7352247,5.85106683 38.3350558,8.97784543 39.6013675,13.1735454 C39.6801468,13.4343108 39.7302896,13.7040971 39.813861,14.0543502" id="Fill-1" fill="#5C3418" mask="url(#mask-2)"></path>
                </g>
                <g id="Group-6" transform="translate(20.571429, 16.864865)">
                    <mask id="mask-4" fill="white">
                        <use xlink:href="#path-3"></use>
                    </mask>
                    <g id="Clip-5"></g>
                    <path d="M19.1659116,10.4031537 C19.1754295,11.8609539 20.3328937,13.0679834 21.711242,13.0573637 C23.111992,13.0466233 24.2612152,11.8055623 24.2441527,10.3219369 C24.2276705,8.88272131 23.053492,7.69632784 21.6621437,7.71298152 C20.269983,7.72987656 19.1563937,8.92990673 19.1659116,10.4031537 M11.6820902,7.71298152 C10.3080366,7.71587781 9.13095625,8.9363027 9.11946518,10.3697257 C9.10832232,11.7737031 10.3052509,13.0364862 11.6661884,13.0563982 C13.0430277,13.0765516 14.2631705,11.8021833 14.2522598,10.3558476 C14.2413491,8.92532093 13.0593937,7.70996455 11.6820902,7.71298152 M29.9255009,31.1351713 C27.5440634,30.0733184 25.2914652,29.1637622 23.1254562,28.0690846 C21.7164652,27.3569589 20.377233,27.350925 18.8533312,27.5232543 C12.9189473,28.1944699 7.57095625,26.6812782 3.35802768,22.0972933 C-1.30757946,17.0208181 -0.991633036,9.81448246 3.96554554,4.9476264 C6.65004554,2.31212168 9.88089375,0.838150597 13.5059205,0.27313237 C17.8078759,-0.397359145 21.9386259,0.170555374 25.8200545,2.27748686 C28.4863312,3.72478793 30.6548937,5.74374456 32.0570366,8.54976845 C34.3236795,13.0862059 33.5165187,18.3246321 29.9357152,22.1378414 C29.1312241,22.9945403 28.186983,23.7147515 27.272108,24.4510129 C26.9610366,24.7014215 26.9095009,24.8750783 27.0838402,25.2313222 C28.0186795,27.1422713 28.9319295,29.0648055 29.9255009,31.1351713" id="Fill-4" fill="#5C3418" mask="url(#mask-4)"></path>
                </g>
            </g>
        </g>
    </g>
</svg>