<?xml version="1.0" encoding="UTF-8"?>
<svg width="49px" height="49px" viewBox="0 0 49 49" version="1.1" xmlns="http://www.w3.org/2000/svg" xmlns:xlink="http://www.w3.org/1999/xlink">
    <!-- Generator: Sketch 52.5 (67469) - http://www.bohemiancoding.com/sketch -->
    <title>icons/social/instagram</title>
    <desc>Created with Sketch.</desc>
    <defs>
        <path d="M21.8016759,0.00746547514 C22.596749,0.00622122928 23.4838963,0.00746547514 24.4805372,0.00746547514 C32.4536647,0.00746547514 33.3986694,0.0360831298 36.5472335,0.179171403 C39.4587688,0.31230571 41.0389611,0.79880584 42.0915931,1.2075406 C43.4851484,1.74878755 44.4786788,2.3957954 45.5232232,3.44096192 C46.5683897,4.48612844 47.2153975,5.48152512 47.7578887,6.87508048 C48.1666235,7.92646823 48.6537457,9.50666047 48.7862579,12.4181958 C48.9293462,15.5661378 48.9604523,16.5117646 48.9604523,24.4811594 C48.9604523,32.4505541 48.9293462,33.3961809 48.7862579,36.5441229 C48.6531236,39.4556582 48.1666235,41.0358505 47.7578887,42.0872382 C47.2166418,43.4807936 46.5683897,44.4730797 45.5232232,45.517624 C44.4780566,46.5627906 43.4857706,47.2097984 42.0915931,47.7510454 C41.0402053,48.1616465 39.4587688,48.6469024 36.5472335,48.7800367 C33.3992915,48.923125 32.4536647,48.9542311 24.4805372,48.9542311 C16.5067877,48.9542311 15.5617829,48.923125 12.4138409,48.7800367 C9.50230561,48.6456581 7.92211337,48.159158 6.86885925,47.7504232 C5.47530389,47.2091763 4.47990721,46.5621684 3.43474069,45.5170019 C2.38957417,44.4718354 1.74256632,43.4789272 1.20007513,42.0847497 C0.791340365,41.033362 0.304218112,39.4531697 0.171705928,36.5416344 C0.0286176547,33.3936924 0,32.4480656 0,24.4736939 C0,16.4993222 0.0286176547,15.5586723 0.171705928,12.4107303 C0.304840235,9.49919499 0.791340365,7.91900275 1.20007513,6.86637076 C1.74132208,5.4728154 2.38957417,4.47741871 3.43474069,3.4322522 C4.47990721,2.38708568 5.47530389,1.74007783 6.86885925,1.19758664 C7.92149125,0.786985504 9.50230561,0.30172962 12.4138409,0.167973191 C15.1686012,0.043548605 16.2361642,0.00622122928 21.8016759,0 L21.8016759,0.00746547514 Z M40.4205709,4.96578521 C38.44222,4.96578521 36.8371428,6.568996 36.8371428,8.54796903 C36.8371428,10.5263199 38.44222,12.1313971 40.4205709,12.1313971 C42.3989218,12.1313971 44.003999,10.5263199 44.003999,8.54796903 C44.003999,6.56961812 42.3989218,4.96454097 40.4205709,4.96454097 L40.4205709,4.96578521 Z M24.4805372,9.15267252 C16.0115778,9.15267252 9.14520705,16.0190433 9.14520705,24.4880027 C9.14520705,32.9569621 16.0115778,39.8202223 24.4805372,39.8202223 C32.9494967,39.8202223 39.8133789,32.9569621 39.8133789,24.4880027 C39.8133789,16.0190433 32.9488745,9.15267252 24.4799151,9.15267252 L24.4805372,9.15267252 Z M24.4805372,14.5340359 C29.9776154,14.5340359 34.4345041,18.9903024 34.4345041,24.4880027 C34.4345041,29.9850809 29.9776154,34.4419696 24.4805372,34.4419696 C18.9828369,34.4419696 14.5265704,29.9850809 14.5265704,24.4880027 C14.5265704,18.9903024 18.9828369,14.5340359 24.4805372,14.5340359 Z" id="path-1"></path>
    </defs>
    <g id="Page-1" stroke="none" stroke-width="1" fill="none" fill-rule="evenodd">
        <g id="osakakuma-website-copy" transform="translate(-386.000000, -872.000000)">
            <g id="icons/social/instagram" transform="translate(386.000000, 872.000000)">
                <mask id="mask-2" fill="white">
                    <use xlink:href="#path-1"></use>
                </mask>
                <use id="Mask" fill="#EB6666" xlink:href="#path-1"></use>
                <g id="Color" mask="url(#mask-2)" fill="#5C3418">
                    <g transform="translate(-3.060028, -3.060028)" id="color/background">
                        <rect x="0" y="0" width="55.0805089" height="55.0805089" rx="4"></rect>
                    </g>
                </g>
            </g>
        </g>
    </g>
</svg>