<?xml version="1.0" encoding="UTF-8"?>
<svg width="150px" height="26px" viewBox="0 0 150 26" version="1.1" xmlns="http://www.w3.org/2000/svg" xmlns:xlink="http://www.w3.org/1999/xlink">
    <!-- Generator: Sketch 52.5 (67469) - http://www.bohemiancoding.com/sketch -->
    <title>Group 22</title>
    <desc>Created with Sketch.</desc>
    <defs>
        <linearGradient x1="0%" y1="0%" x2="100%" y2="100%" id="linearGradient-1">
            <stop stop-color="#7AC8C4" offset="0%"></stop>
            <stop stop-color="#15A5B2" offset="100%"></stop>
        </linearGradient>
        <polygon id="path-2" points="0.118587922 0.224147425 20.3563055 0.224147425 20.3563055 25.8436945 0.118587922 25.8436945"></polygon>
    </defs>
    <g id="Page-1" stroke="none" stroke-width="1" fill="none" fill-rule="evenodd">
        <g id="osakakuma-website-copy" transform="translate(-218.000000, -365.000000)">
            <g id="Group-22" transform="translate(218.000000, 365.000000)">
                <path d="M25.3078508,7.80490231 C23.550746,5.96280639 21.1701954,4.71591474 18.7328952,3.92222025 L18.4211723,3.9789698 L16.4090941,6.95472469 L16.4940853,7.18145648 C19.2146004,8.08838366 21.0566963,9.3637833 22.8987922,11.2058792 L23.2105151,11.1208881 L25.3360924,8.11662522 L25.3078508,7.80490231 Z" id="Fill-1" fill="url(#linearGradient-1)"></path>
                <path d="M6.12151865,20.5863677 C6.12151865,20.9830817 6.03652753,21.1248224 5.78155417,21.1248224 C5.32782416,21.1248224 4.05269094,20.4448934 4.05269094,19.9061723 C4.05269094,19.5094583 4.874627,18.7160302 6.12151865,17.9790853 L6.12151865,20.5863677 Z M16.0121936,11.2341474 C14.0001155,11.2341474 11.8462966,11.8293517 10.0609503,12.4810391 L10.0891918,9.73201599 C11.3360835,9.50528419 12.6112167,9.19356128 13.8868828,8.91034636 L14.0851066,8.68334813 L13.7166341,5.25439609 L13.4899023,5.11265542 C12.3847513,5.42437833 11.3360835,5.70785968 10.145675,5.96283304 L10.2024245,1.62668739 L10.0042007,1.45670515 L6.31974245,1.45670515 L6.09301066,1.65519538 L6.06476909,6.61478686 C4.27915631,6.86976021 2.40881883,7.01150089 0.453490231,7.09649201 L0.255,7.29471581 L0.425248668,10.7239343 L0.623472469,10.8941829 C2.49380995,10.8089254 4.27915631,10.6389432 6.06476909,10.3839698 L6.03652753,13.8699378 C2.83404085,15.456794 2.6642984e-05,18.3760657 2.6642984e-05,20.1046625 C2.6642984e-05,22.9101687 5.24283304,25.3759769 7.08492895,25.3759769 C9.23901421,25.3759769 10.1174334,24.2990675 10.1174334,22.7401865 L10.1174334,16.3922291 C12.1295115,15.4003108 13.7733837,14.8615897 15.5304885,14.8615897 C17.4860835,14.8615897 18.5912345,15.882016 18.5912345,17.3273979 C18.5912345,18.9710036 17.3443428,19.8496892 15.7004707,19.9061723 C15.0541119,19.9248224 14.3480728,19.7732238 13.667611,19.540897 L12.0730284,22.9290853 C12.0237389,23.0340586 12.0626377,23.1614121 12.1641474,23.2173623 C13.2218739,23.797913 14.3957638,24.0155861 15.9272025,24.0155861 C20.1216075,24.0155861 23.0688544,21.6917851 23.0688544,17.3556394 C23.0688544,14.1531528 20.6600622,11.2341474 16.0121936,11.2341474 Z" id="Fill-3" fill="url(#linearGradient-1)"></path>
                <path d="M53.1841119,7.80490231 C51.4270071,5.96280639 49.0464565,4.71591474 46.6091563,3.92222025 L46.2974334,3.9789698 L44.2853552,6.95472469 L44.3703464,7.18145648 C47.0908615,8.08838366 48.9329574,9.3637833 50.7750533,11.2058792 L51.0867762,11.1208881 L53.2123535,8.11662522 L53.1841119,7.80490231 Z" id="Fill-5" fill="url(#linearGradient-1)"></path>
                <path d="M33.9977798,20.5863677 C33.9977798,20.9830817 33.9127886,21.1248224 33.6578153,21.1248224 C33.2040853,21.1248224 31.928952,20.4448934 31.928952,19.9061723 C31.928952,19.5094583 32.7508881,18.7160302 33.9977798,17.9790853 L33.9977798,20.5863677 Z M43.8887211,11.2341474 C41.8763766,11.2341474 39.7225577,11.8293517 37.9372114,12.4810391 L37.9654529,9.73201599 C39.2123446,9.50528419 40.4874778,9.19356128 41.7631439,8.91034636 L41.9613677,8.68334813 L41.5928952,5.25439609 L41.3661634,5.11265542 C40.2610124,5.42437833 39.2123446,5.70785968 38.0219361,5.96283304 L38.0786856,1.62668739 L37.8804618,1.45670515 L34.1960036,1.45670515 L33.9692718,1.65519538 L33.9410302,6.61478686 C32.1554174,6.86976021 30.2850799,7.01150089 28.3297513,7.09649201 L28.1312611,7.29471581 L28.3015098,10.7239343 L28.4997336,10.8941829 C30.370071,10.8089254 32.1554174,10.6389432 33.9410302,10.3839698 L33.9127886,13.8699378 C30.710302,15.456794 27.8762877,18.3760657 27.8762877,20.1046625 C27.8762877,22.9101687 33.1190941,25.3759769 34.9611901,25.3759769 C37.1152753,25.3759769 37.9936945,24.2990675 37.9936945,22.7401865 L37.9936945,16.3922291 C40.0060391,15.4003108 41.6496448,14.8615897 43.4067496,14.8615897 C45.3623446,14.8615897 46.4674956,15.882016 46.4674956,17.3273979 C46.4674956,18.9710036 45.2206039,19.8496892 43.5767318,19.9061723 C42.930373,19.9248224 42.2243339,19.7732238 41.5438721,19.540897 L39.9492895,22.9290853 C39.9,23.0340586 39.9388988,23.1614121 40.0404085,23.2173623 C41.098135,23.797913 42.2720249,24.0155861 43.8034636,24.0155861 C47.9978686,24.0155861 50.9451155,21.6917851 50.9451155,17.3556394 C50.9451155,14.1531528 48.5363233,11.2341474 43.8887211,11.2341474 Z" id="Fill-7" fill="url(#linearGradient-1)"></path>
                <path d="M90.7479751,6.16124334 C90.2095204,6.16124334 89.6710657,6.1894849 89.104103,6.2179929 C89.5858082,4.82909414 90.1245293,3.32722913 90.7194671,1.71186501 L90.634476,1.4001421 L86.8085435,0.464706927 L86.5250622,0.606447602 C85.7883837,2.78877442 85.1364298,4.80085258 84.4562345,6.7564476 C82.5009059,7.03966252 80.4035702,7.29490231 78.1647602,7.46488455 L77.994778,7.66337478 L78.6182238,11.0923268 L78.8449556,11.2623091 C80.2618295,11.0923268 81.7924689,10.894103 83.0961101,10.6956128 C81.6504618,15.0317584 80.2335879,19.3393961 78.7032149,24.270746 L78.788206,24.4974778 L82.5291474,25.4326465 L82.8408703,25.3476554 C84.3997513,19.8496092 85.8166252,15.456714 87.7154707,10.072167 C88.4239076,10.0154174 89.0758615,9.95893428 89.5858082,9.95893428 C90.8329663,9.95893428 91.0311901,10.2988988 91.0311901,11.999254 C91.0311901,14.4650622 90.4644938,17.9507638 90.0110302,19.3961456 C89.5858082,20.7280284 89.1890941,20.8982771 88.2824334,20.8982771 C87.6917584,20.8982771 86.6742629,20.6846004 85.8230195,20.4056483 L87.1367851,24.9309591 C87.1599645,25.0111545 87.2271048,25.0724334 87.3091652,25.0878863 C88.1145826,25.2410835 88.8824334,25.3194139 89.5858082,25.3194139 C91.0879396,25.3194139 92.9582771,24.6392185 93.9787034,21.4367318 C94.7438899,19.2261634 95.254103,15.485222 95.2823446,11.7442806 C95.3105861,7.60662522 93.1000178,6.16124334 90.7479751,6.16124334" id="Fill-9" fill="url(#linearGradient-1)"></path>
                <path d="M98.8815187,5.33938721 L98.5983037,5.33938721 L95.5940409,7.23823268 L95.5375577,7.5214476 C97.6913766,9.93050622 99.3067407,13.2747336 100.411892,16.5337034 L100.667131,16.5904529 L104.209583,14.5498668 L104.322815,14.2666519 C103.104165,11.0641652 101.290577,7.97517762 98.8815187,5.33938721" id="Fill-11" fill="url(#linearGradient-1)"></path>
                <path d="M75.4436057,6.7279929 L73.7150089,3.27053286 L73.4315275,3.2137833 C71.8726465,4.06396092 70.2572824,4.7726643 68.5569272,5.36760213 C67.5191829,3.88492007 66.4598579,2.42488455 65.4165187,1.07941385 C65.3611012,1.00801066 65.2683837,0.978170515 65.1812611,1.00268206 L61.0350799,2.17204263 C62.2526643,3.67044405 63.3628774,5.14113677 64.3625222,6.52976909 C61.7552398,7.12470693 58.9779751,7.43642984 55.9454707,7.57817052 L55.7754885,7.77666075 L56.4274423,11.1773712 L56.6541741,11.3758615 C60.3383659,11.2623623 63.6540853,10.8659147 66.7148313,10.1004618 C67.5935169,11.4890941 68.3301954,12.7362522 68.8686501,13.7846536 C69.1521314,14.3516163 68.9536412,14.493357 68.3587034,14.6065897 C67.9052398,14.6915808 67.253286,14.8050799 66.0346359,14.9183126 L66.091119,15.8534813 C68.783659,16.4771936 69.5488455,16.8453996 70.5407638,17.4123623 C71.0224689,17.6958437 71.4759325,17.8658259 72.0143872,17.8658259 C73.1480462,17.8658259 74.4231794,17.128881 74.4231794,15.8534813 C74.4231794,15.1735524 74.2531972,14.5498401 73.9132327,13.9263943 C73.1762877,12.5660036 72.0993783,10.7806572 70.8807282,8.85357016 C72.3828597,8.31511545 73.8564831,7.69166963 75.330373,6.98296625 L75.4436057,6.7279929 Z" id="Fill-13" fill="url(#linearGradient-1)"></path>
                <path d="M71.3168206,21.0361012 C71.3908881,20.8829041 71.2701954,20.706794 71.1004796,20.7193162 C69.9923979,20.8003108 69.1693961,20.8416075 68.3301421,20.8416075 C64.5327176,20.8416075 60.7917762,20.0196714 59.2046536,17.1571492 L58.9496803,17.1006661 L55.9171758,18.9992451 L55.8889343,19.2544849 C58.0142451,23.2221581 62.2086501,25.2909858 67.8201954,25.2909858 C68.3082948,25.2909858 68.7279218,25.2907194 69.1246359,25.2861901 C69.2085613,25.2853908 69.2842274,25.2369005 69.3207282,25.1612345 L71.3168206,21.0361012 Z" id="Fill-15" fill="url(#linearGradient-1)"></path>
                <path d="M126.452957,21.6890409 C122.089636,18.6576021 116.961661,15.711421 113.307043,14.0398401 C113.052069,13.9266075 112.853579,13.7281172 112.825337,13.529627 C112.796829,13.3314032 112.966812,13.0196803 113.250293,12.7929485 C115.999316,10.3838899 120.278712,7.35165187 124.274627,4.63087034 L124.274627,4.34738899 L121.32738,1.08815275 L121.015657,1.08815275 C116.679512,4.4608881 112.400115,7.88984014 109.169387,11.0358437 C108.20571,11.9710124 107.582265,12.849698 107.582265,14.0115986 C107.582265,15.3152398 108.318943,16.193659 109.48111,16.7888632 C114.375959,19.3258082 118.251181,21.6794494 122.175693,24.5792718 C122.252691,24.6362877 122.357931,24.6373535 122.435728,24.5814032 L126.452957,21.6890409 Z" id="Fill-17" fill="url(#linearGradient-1)"></path>
                <g id="Group-21" transform="translate(129.484902, 0.042309)">
                    <mask id="mask-3" fill="white">
                        <use xlink:href="#path-2"></use>
                    </mask>
                    <g id="Clip-20"></g>
                    <path d="M6.3818206,22.2445737 C4.53972469,22.2445737 3.94452043,21.7343606 3.94452043,21.0541652 C3.94452043,20.543952 4.90819716,19.9207726 6.3818206,19.9207726 C7.3737389,19.9207726 7.79896092,20.0057638 8.42240675,20.2607371 C8.53563943,21.5361368 7.96894316,22.2445737 6.3818206,22.2445737 Z M20.3563321,22.095373 C17.7716963,20.1024778 15.4364387,18.5880906 12.6450533,17.4549645 C12.5597957,16.2648224 12.5033126,15.0176643 12.4465631,13.6857815 C14.317167,13.4023002 16.215746,13.0055861 18.1430995,12.4671314 L18.2848401,12.2118917 L17.8313766,9.0096714 L17.5764032,8.83942274 C15.9042895,9.32139432 14.1471847,9.71810835 12.3333304,10.0015897 C12.2765808,9.09466252 12.2765808,8.21597691 12.2765808,7.30931616 C13.8637034,7.08258437 15.4508259,6.74235346 16.9811989,6.34563943 L17.1794227,6.11890764 L16.8112167,3.17166075 L16.5844849,2.94492895 C15.2805773,3.25665187 13.8354618,3.51162522 12.2765808,3.73835702 C12.3048224,2.68968917 12.3333304,1.5560302 12.3615719,0.450879218 L12.1633481,0.224147425 L8.3371492,0.224147425 L8.1389254,0.450879218 C8.11068384,1.75452043 8.11068384,2.94492895 8.11068384,4.10682948 C6.04185613,4.22006217 3.97276199,4.1918206 2.01743339,4.07832149 L1.7907016,4.24857016 L1.70571048,7.39430728 L1.90393428,7.64928064 C4.00126998,7.79102131 6.04185613,7.81926288 8.1389254,7.7060302 C8.22391652,8.61295737 8.16716696,9.51988455 8.22391652,10.4268117 C5.8433659,10.568286 3.51956483,10.5118028 1.30873002,10.2565631 L1.11050622,10.4550533 L0.57205151,13.7707726 L0.742033748,13.9975044 C3.23608348,14.2524778 5.73013321,14.3092274 8.39389876,14.1392451 C8.42240675,14.9894227 8.47915631,15.8681083 8.53563943,16.718286 C4.22800178,16.5197957 0.118587922,17.4549645 0.118587922,21.309405 C0.118587922,24.6251243 3.29283304,25.8437744 5.98510657,25.8437744 C9.95277975,25.8437744 12.4183215,24.6533659 12.5883037,21.5926199 C13.7350178,22.2269893 15.5315542,23.5540764 17.0398135,24.8872913 C17.125071,24.9624245 17.2518917,24.9608259 17.3352842,24.8838277 L20.3563321,22.095373 Z" id="Fill-19" fill="url(#linearGradient-1)" mask="url(#mask-3)"></path>
                </g>
            </g>
        </g>
    </g>
</svg>